<?xml version="1.0" encoding="UTF-8"?>
<svg id="illustration-builder" width="1996" height="1756" viewBox="-10 -30 2066 1816" version="1.1" xmlns="http://www.w3.org/2000/svg" xmlns:xlink="http://www.w3.org/1999/xlink" style="pointer-events: inherit;"><g transform="translate(383,433.5)">
<g><svg xmlns="http://www.w3.org/2000/svg" width="1076" height="778" viewBox="0 0 1076 778"><g id="Symbols--globalStyle4/objects/bgelements/ai/2" fill="none" fill-rule="evenodd" stroke="none" stroke-width="1"><g id="Group-3--globalStyle4/objects/bgelements/ai/2" transform="translate(121.842 98.5)"><g id="Group--globalStyle4/objects/bgelements/ai/2" transform="translate(.7)"><g id="Group-138--globalStyle4/objects/bgelements/ai/2" transform="translate(0 .016)"><polygon id="Fill-1--globalStyle4/objects/bgelements/ai/2" fill="#FFF" points="1.34258113 553.475637 829.599674 553.475637 829.599674 1.20220569 1.34258113 1.20220569"></polygon><path id="[color]mon--globalStyle4/objects/bgelements/ai/2" fill="#ff7900" d="M806.474976,0.196784034 L24.4672792,0.196784034 C11.1405821,0.196784034 0.337159471,11.0002066 0.337159471,24.3269038 L0.337159471,530.350939 C0.337159471,543.677636 11.1405821,554.481059 24.4672792,554.481059 L806.474976,554.481059 C819.801673,554.481059 830.605095,543.677636 830.605095,530.350939 L830.605095,24.3269038 C830.605095,11.0002066 819.801673,0.196784034 806.474976,0.196784034 Z" opacity="1.00"></path><path id="Stroke-2-Copy--globalStyle4/objects/bgelements/ai/2" fill="#FFF" d="M51.2267029,523.3268 L780.257006,523.3268 C792.959555,523.3268 803.257006,513.029349 803.257006,500.3268 L803.257006,73.445992 C803.257006,60.7434428 792.959555,50.445992 780.257006,50.445992 L51.2267029,50.445992 C38.5241536,50.445992 28.2267029,60.7434428 28.2267029,73.445992 L28.2267029,500.3268 C28.2267029,513.029349 38.5241536,523.3268 51.2267029,523.3268 Z"></path></g><path id="shape--globalStyle4/objects/bgelements/ai/2" fill="#FFF" d="M56.9107979,15.8484848 C63.6047826,15.8484848 69.0313293,21.2750316 69.0313293,27.9690162 C69.0313293,34.6630009 63.6047826,40.0895477 56.9107979,40.0895477 C50.2168133,40.0895477 44.7902665,34.6630009 44.7902665,27.9690162 C44.7902665,21.2750316 50.2168133,15.8484848 56.9107979,15.8484848 Z M101.565387,15.8484848 C108.259372,15.8484848 113.685919,21.2750316 113.685919,27.9690162 C113.685919,34.6630009 108.259372,40.0895477 101.565387,40.0895477 C94.8714026,40.0895477 89.4448559,34.6630009 89.4448559,27.9690162 C89.4448559,21.2750316 94.8714026,15.8484848 101.565387,15.8484848 Z M146.219977,15.8484848 C152.913961,15.8484848 158.340508,21.2750316 158.340508,27.9690162 C158.340508,34.6630009 152.913961,40.0895477 146.219977,40.0895477 C139.525992,40.0895477 134.099445,34.6630009 134.099445,27.9690162 C134.099445,21.2750316 139.525992,15.8484848 146.219977,15.8484848 Z"></path></g></g></g></svg></g></g><!----><!----><g transform="translate(705,298.5)">
<g><svg xmlns="http://www.w3.org/2000/svg" width="216" height="203" viewBox="0 0 216 203"><g id="Symbols--globalStyle4/objects/ai/bubble/5" fill="none" fill-rule="evenodd" stroke="none" stroke-width="1"><g id="globalStyle4/objects/ai/bubble/5--globalStyle4/objects/ai/bubble/5" fill="#000"><path id="[color]color--globalStyle4/objects/ai/bubble/5" d="M108,14.235874 C156.194646,14.235874 195.264126,53.305354 195.264126,101.5 C195.264126,149.694646 156.194646,188.764126 108,188.764126 C59.805354,188.764126 20.735874,149.694646 20.735874,101.5 C20.735874,53.305354 59.805354,14.235874 108,14.235874 Z M108,18.235874 C62.014493,18.235874 24.735874,55.514493 24.735874,101.5 C24.735874,147.485507 62.014493,184.764126 108,184.764126 C153.985507,184.764126 191.264126,147.485507 191.264126,101.5 C191.264126,55.514493 153.985507,18.235874 108,18.235874 Z" fill="#f81f69" opacity="1.00"></path><path id="[color]color--globalStyle4/objects/ai/bubble/5" d="M143.616061,84.6148854 L141.511679,84.6148854 L141.511679,74.7657401 C141.511679,56.548993 127.055482,41.3315 108.986956,41.0066566 C108.493256,40.9977811 107.506744,40.9977811 107.013266,41.0066566 C88.9442959,41.3315 74.4883211,56.548993 74.4883211,74.7657401 L74.4883211,84.6148854 L72.3837176,84.6148854 C69.1406089,84.6148854 66.4952654,87.9613936 66.4952654,92.0944933 L66.4952654,141.493766 C66.4952654,145.622206 69.1406089,149 72.3839394,149 L143.616061,149 C146.859169,149 149.504735,145.622206 149.504735,141.493766 L149.504735,92.0944933 C149.504735,87.9616155 146.859391,84.6148854 143.616061,84.6148854 Z M114.67349,116.743983 L114.67349,131.670581 C114.67349,133.379781 113.242537,134.826266 111.532006,134.826266 L104.468438,134.826266 C102.757684,134.826266 101.326731,133.379781 101.326731,131.670581 L101.326731,116.743983 C99.6676782,115.11089 98.7018016,112.852741 98.7018016,110.35473 C98.7018016,105.620981 102.360949,101.553338 107.013488,101.3654 C107.506522,101.34543 108.494144,101.34543 108.987178,101.3654 C113.639716,101.553338 117.298864,105.620981 117.298864,110.35473 C117.29842,112.852741 116.332544,115.11089 114.67349,116.743983 Z M127.641709,84.6148854 L108.986956,84.6148854 L107.013266,84.6148854 L88.3587347,84.6148854 L88.3587347,74.7657401 C88.3587347,63.9143288 97.177434,54.9418613 108,54.9418613 C118.822566,54.9418613 127.641709,63.9143288 127.641709,74.7657401 L127.641709,84.6148854 L127.641709,84.6148854 Z" fill="#f81f69" opacity="1.00"></path></g></g></svg></g></g><g transform="translate(921,298.5)">
<g><svg xmlns="http://www.w3.org/2000/svg" width="216" height="203" viewBox="0 0 216 203"><g id="Symbols--globalStyle4/objects/ai/bubble/7" fill="none" fill-rule="evenodd" stroke="none" stroke-width="1"><g id="globalStyle4/objects/ai/bubble/7--globalStyle4/objects/ai/bubble/7" fill="#000"><path id="[color]color--globalStyle4/objects/ai/bubble/7" d="M108,14.235874 C156.194646,14.235874 195.264126,53.305354 195.264126,101.5 C195.264126,149.694646 156.194646,188.764126 108,188.764126 C59.805354,188.764126 20.735874,149.694646 20.735874,101.5 C20.735874,53.305354 59.805354,14.235874 108,14.235874 Z M108,18.235874 C62.014493,18.235874 24.735874,55.514493 24.735874,101.5 C24.735874,147.485507 62.014493,184.764126 108,184.764126 C153.985507,184.764126 191.264126,147.485507 191.264126,101.5 C191.264126,55.514493 153.985507,18.235874 108,18.235874 Z" fill="#3536ef" opacity="1.00"></path><path id="[color]color--globalStyle4/objects/ai/bubble/7" d="M106.983864,44.6519364 C107.645539,44.4493545 108.354461,44.4493545 109.016136,44.6519364 L109.016136,44.6519364 L153.957521,58.4800547 C155.409242,58.925781 156.398414,60.2659562 156.398414,61.7852054 L156.398414,61.7852054 L156.398414,98.1939494 C156.398414,127.845353 137.357786,153.624422 109.016136,162.348121 C108.685414,162.449297 108.34432,162.5 108,162.5 C107.65568,162.5 107.314586,162.449297 106.983864,162.348121 C78.6422136,153.624422 59.6015861,127.845353 59.6015861,98.1939494 L59.6015861,98.1939494 L59.6015861,61.7852054 C59.6015861,60.2659562 60.5907575,58.925781 62.0424795,58.4800547 L62.0424795,58.4800547 Z M109.016136,59.1216794 C108.099102,58.84166 107.481446,58.9698006 106.983864,59.1216794 L106.983864,59.1216794 L75.8705977,68.692581 C74.4188758,69.1383073 73.4297044,70.4784824 73.4297044,71.9977317 L73.4297044,71.9977317 L73.4297044,98.1939494 C73.4297044,120.023478 86.4594793,139.382843 106.62802,147.552726 C106.62802,147.552726 107.189442,147.841273 108,147.841273 C108.555429,147.841273 108.930632,147.73157 109.37198,147.552726 C129.540521,139.382843 142.570296,120.023708 142.570296,98.1939494 L142.570296,98.1939494 L142.570296,71.9977317 C142.570296,70.4784824 141.581124,69.1383073 140.129402,68.692581 L140.129402,68.692581 Z M104.54297,100.273468 L104.54297,138.808055 C90.3371141,131.104871 81.2193139,116.645499 80.4949509,100.273468 L80.4949509,100.273468 L104.54297,100.273468 Z M135.505049,100.273468 C134.780686,116.645499 125.662886,131.104871 111.45703,138.808055 L111.45703,138.808055 L111.45703,100.273468 Z M104.54297,67.1058044 L104.54297,93.3594088 L80.3437635,93.3594088 L80.3437635,74.5499414 L104.54297,67.1058044 Z M111.45703,67.1058044 L135.656236,74.5499414 L135.656236,93.3594088 L111.45703,93.3594088 L111.45703,67.1058044 Z" fill="#3536ef" opacity="1.00"></path></g></g></svg></g></g><g transform="translate(1137,298.5)">
<g><svg xmlns="http://www.w3.org/2000/svg" width="216" height="203" viewBox="0 0 216 203"><g id="Symbols--globalStyle4/objects/ai/bubble/9" fill="none" fill-rule="evenodd" stroke="none" stroke-width="1"><g id="globalStyle4/objects/ai/bubble/9--globalStyle4/objects/ai/bubble/9" fill="#000"><path id="[color]color--globalStyle4/objects/ai/bubble/9" d="M108,14.235874 C156.194646,14.235874 195.264126,53.305354 195.264126,101.5 C195.264126,149.694646 156.194646,188.764126 108,188.764126 C59.805354,188.764126 20.735874,149.694646 20.735874,101.5 C20.735874,53.305354 59.805354,14.235874 108,14.235874 Z M108,18.235874 C62.014493,18.235874 24.735874,55.514493 24.735874,101.5 C24.735874,147.485507 62.014493,184.764126 108,184.764126 C153.985507,184.764126 191.264126,147.485507 191.264126,101.5 C191.264126,55.514493 153.985507,18.235874 108,18.235874 Z" fill="#7735ef" opacity="1.00"></path><path id="[color]color--globalStyle4/objects/ai/bubble/9" d="M155.151525,128.368738 L113.21367,92.851693 C114.95095,89.1230693 115.948681,84.9808175 115.948681,80.5972654 C115.948681,64.5277413 102.918675,51.5 86.850386,51.5 C70.7818913,51.5 57.7518853,64.5275354 57.7518853,80.5972654 C57.7518853,96.6665836 70.7818913,109.694531 86.850386,109.694531 C92.1515789,109.694531 97.1087337,108.253318 101.390989,105.774638 L113.529708,116.055633 L109.950764,120.282299 C106.826832,123.971186 107.286168,129.493502 110.974437,132.617846 C112.617214,134.011087 114.628118,134.69134 116.626051,134.69134 C119.108849,134.69134 121.577029,133.640489 123.309779,131.596438 L126.888928,127.369566 L130.480637,130.412378 L124.824494,137.091783 C121.700562,140.779846 122.160309,146.302369 125.848167,149.4263 C127.493414,150.819336 129.501847,151.5 131.49978,151.5 C133.98299,151.5 136.453023,150.447503 138.183508,148.403657 L143.839857,141.725076 C145.484898,143.118523 147.493538,143.798776 149.49147,143.798776 C151.974269,143.798776 154.444302,142.747926 156.175404,140.702639 C159.29913,137.014781 158.839589,131.49267 155.151525,128.368738 Z M79.9078574,83.2746272 C74.8994366,83.2746272 70.8372751,79.2134951 70.8372751,74.2040449 C70.8372751,69.1933593 74.8992307,65.1324331 79.9078574,65.1324331 C84.9187489,65.1324331 88.9804987,69.1933593 88.9804987,74.2040449 C88.9807046,79.2134951 84.9187489,83.2746272 79.9078574,83.2746272 Z" fill="#7735ef" opacity="1.00"></path></g></g></svg></g></g><!----><g transform="translate(1137,691.5)">
<g><svg xmlns="http://www.w3.org/2000/svg" width="476" height="766" viewBox="0 0 476 766"><g id="Symbols--globalStyle4/ai/people/standing/6" fill="none" fill-rule="evenodd" stroke="none" stroke-width="1"><g id="Group-3--globalStyle4/ai/people/standing/6" transform="matrix(-1 0 0 1 357 176.9)"><g id="Group--globalStyle4/ai/people/standing/6" fill="#000" transform="translate(0 335.365)"><path id="[color]chair--globalStyle4/ai/people/standing/6" d="M40.7956301,2.102393 C41.0567622,0.696616607 42.3675392,-0.223496688 43.7233325,0.0472624368 C45.0791257,0.318021561 45.9665239,1.67712213 45.7053917,3.08289853 L45.7053917,3.08289853 L25.327,112.783 L64.664,89.293 L77.4492902,18.0685897 C77.6918244,16.7174436 78.9043946,15.8075971 80.201954,15.968731 L80.3645276,15.9944964 C81.7219289,16.25645 82.6175151,17.6097641 82.3648754,19.0172079 L82.3648754,19.0172079 L70.132,87.163 L157.752,87.163 L145.003407,19.0366673 C144.740403,17.6312663 145.625989,16.270896 146.98142,15.9981951 C148.336852,15.7254943 149.648853,16.6437292 149.911858,18.0491302 L162.849,87.186 L210.879,115.605 L190.121012,12.0939009 C189.83993,10.6922669 190.707917,9.31975568 192.059715,9.02831134 C193.411513,8.73686699 194.735224,9.63685356 195.016306,11.0384876 L237.209629,221.438384 C237.490711,222.840018 236.622724,224.212529 235.270926,224.503974 C233.919128,224.795418 232.595417,223.895431 232.314335,222.493797 L211.52,118.802 L168.653,118.2 L182.689806,193.202437 C182.952811,194.607838 182.067224,195.968208 180.711793,196.240909 C179.356362,196.51361 178.04436,195.595375 177.781355,194.189974 L163.547,118.128 L64.823,116.74 L50.9244065,194.170514 C50.6818723,195.52166 49.4693021,196.431507 48.1717427,196.270373 L48.0091691,196.244608 C46.6517678,195.982654 45.7561816,194.62934 46.0088214,193.221896 L46.0088214,193.221896 L59.75,116.669 L24.697,116.176 L4.95534361,222.456344 C4.70465676,223.805889 3.48661721,224.707847 2.19005606,224.538294 L2.02764125,224.511474 C0.671848016,224.240715 -0.215550139,222.881614 0.0455819946,221.475838 L0.0455819946,221.475838 Z M163.827,92.411 L167.902,114.188 L201.428,114.66 L163.827,92.411 Z M158.501,91.162 L69.414,91.162 L65.539,112.749 L162.796,114.116 L158.501,91.162 Z M63.727,94.51 L33.928,112.306 L60.466,112.678 L63.727,94.51 Z" fill="#3536ef" opacity="1.00"></path></g><path id="Path-167-Copy-3--globalStyle4/ai/people/standing/6" fill="#FFF" d="M110.882936,450.486159 L109.797504,552.534932 C128.442414,560.687404 138.857742,563.62638 141.04349,561.351861 C141.161054,561.229523 142.477121,558.069351 142.397558,557.918757 C138.3706,550.296613 132.546632,543.254485 124.925653,536.792373 L133.469445,441.484123 L110.882936,450.486159 Z"></path><path id="[color]color--globalStyle4/ai/people/standing/6" fill="#3536ef" d="M125.792,536.4523 L134.415205,440.259029 L110.121413,449.941516 L109.024648,553.055823 L110.649774,553.764469 C129.098532,561.767771 139.130013,564.531685 141.65305,561.906178 C142.015032,561.529494 143.415588,558.071149 143.137637,557.545048 L142.762048,556.845232 C138.829366,549.630735 133.297219,542.94128 126.170437,536.777095 L125.792,536.4523 Z M111.709,451.0303 L132.589,442.7083 L124.124532,537.134204 L125.12206,537.985776 C132.108862,544.028573 137.518716,550.569783 141.356453,557.609634 L141.583,558.0343 L141.5154,558.232492 L141.396582,558.554648 C141.352267,558.671779 141.303562,558.797857 141.251425,558.930484 L141.085675,559.345613 C140.95654,559.664481 140.82167,559.987675 140.702334,560.264883 L140.450097,560.829309 C140.448876,560.832199 140.446278,560.839785 140.451446,560.838885 L140.464,560.8303 L140.441682,560.853283 C138.529082,562.570519 128.507366,559.762185 111.255867,552.283119 L110.636,552.0133 L111.709,451.0303 Z" opacity="1.00"></path><path id="Path-167-Copy-4--globalStyle4/ai/people/standing/6" fill="#FFF" d="M175.411468,432.194843 L184.039236,529.830563 L183.505654,547.758845 C202.150564,555.911317 212.565892,558.850293 214.75164,556.575774 C214.869204,556.453435 216.185271,553.293264 216.105708,553.14267 C212.07875,545.520526 206.254782,538.478398 198.633803,532.016286 L199.091086,442.867852 L175.411468,432.194843 Z"></path><path id="[color]color--globalStyle4/ai/people/standing/6" fill="#3536ef" d="M199.982274,442.352122 L174.582809,430.903935 L183.330873,529.900982 L182.778462,548.275302 L184.413727,548.988382 C202.862485,556.991684 212.893965,559.755598 215.417002,557.130091 C215.778985,556.753407 217.17954,553.295062 216.901589,552.768961 L216.526,552.069145 C212.593319,544.854648 207.061172,538.165192 199.93439,532.001008 L199.524,531.6493 L199.982274,442.352122 Z M176.416,433.4843 L198.376,443.3833 L197.920433,532.385207 L198.886013,533.209689 C205.872814,539.252486 211.282669,545.793696 215.120406,552.833546 L215.347,553.2583 L215.279353,553.456405 L215.160535,553.778561 C215.11622,553.895692 215.067515,554.02177 215.015378,554.154397 L214.849627,554.569526 C214.720493,554.888394 214.585623,555.211588 214.466287,555.488796 L214.21405,556.053222 C214.212829,556.056112 214.210231,556.063698 214.215399,556.062798 L214.228,556.0543 L214.205635,556.077196 C212.293035,557.794432 202.271318,554.986097 185.01982,547.507031 L184.409,547.2413 L184.927414,529.854362 L176.416,433.4843 Z" opacity="1.00"></path><g id="Group-2--globalStyle4/ai/people/standing/6" transform="translate(57.672)"><path id="[color]color--globalStyle4/ai/people/standing/6" fill="#3536ef" d="M73.3767647,119.918452 C84.7388488,115.291284 101.246673,67.4694989 101.246673,56.5492774 C101.246673,45.6290559 104.020989,42.1980797 100.894762,31.6701614 C97.7685349,21.142243 80.7393841,13.6927233 77.7291235,13.057929 C62.2442991,9.79253811 53.1534401,15.0615981 51.1130737,15.7892644 C42.5177069,18.8546742 30.2213963,43.1662822 25.9905861,53.8202895 C21.759776,64.4742968 12.0105495,96.6819564 23.1707006,99.6338858 C45.2719144,105.479794 62.0146806,124.54562 73.3767647,119.918452 Z" transform="rotate(-22 60.19 66.318)" opacity="1.00"></path><path id="Path-220-Copy--globalStyle4/ai/people/standing/6" fill="#FFF" d="M53.4707949,75.1690798 C54.3158903,80.2433068 53.2833478,86.8002168 50.3731673,94.8398098 C47.4629868,102.879403 44.9318693,107.129235 42.7798148,107.589307 C49.9071348,133.814788 61.6710037,146.927528 78.0714213,146.927528 C94.471839,146.927528 97.9720521,133.814788 88.5720607,107.589307 C85.0541175,100.609665 82.8991118,93.7133165 82.1070436,86.9002626 C81.3149755,80.0872086 71.7695593,76.1768144 53.4707949,75.1690798 Z"></path><path id="[color]color--globalStyle4/ai/people/standing/6" fill="#3536ef" d="M53.6197188,74.3702902 L52.6225274,74.3153737 L52.7865981,75.3005069 C53.6055895,80.2179971 52.5933779,86.6458008 49.7258671,94.5675154 L49.4100547,95.4286539 C46.7386155,102.616707 44.401971,106.446874 42.7175014,106.806985 L41.8911306,106.983649 L42.1127502,107.799114 C49.3240018,134.333426 61.3402893,147.727528 78.176355,147.727528 C95.3181447,147.727528 98.9870502,133.982821 89.4300805,107.319379 C86.0399392,100.580411 83.9411622,94.0107891 83.0954397,87.5278526 L83.0066252,86.8078789 C82.1499822,79.4393779 72.2853938,75.398231 53.6197188,74.3702902 Z M54.5317609,76.2706351 L54.5034243,76.0242995 L54.6765556,76.0354517 C71.6676988,77.1072007 80.5099918,80.787505 81.3909138,86.7916479 L81.4173294,86.9926463 C82.2206222,93.9022503 84.4037239,100.88851 87.9626077,107.949379 C97.1669214,133.646755 93.8354007,146.127528 78.176355,146.127528 L77.6987479,146.123678 C62.2961421,145.874674 51.0855313,133.545256 44.0803788,108.903562 L43.8474243,108.0773 L43.9056705,108.047562 C46.1414525,106.830453 48.4479065,102.702499 51.0595735,95.5808076 L51.2303348,95.1121042 C53.9560427,87.5821307 55.0628355,81.3059413 54.5317609,76.2706351 Z" opacity="1.00"></path><path id="Path-219-Copy--globalStyle4/ai/people/standing/6" fill="#FFF" d="M97.577105,38.511448 C93.7566722,76.0380985 84.0360873,94.3311431 68.4153503,93.3905818 C52.7946133,92.4500204 43.4895684,81.5122714 40.5002154,60.5773349 C34.7859587,55.3820285 32.5621819,50.3732458 33.8288849,45.5509867 C35.095588,40.7287277 38.8140413,40.7287277 44.9842449,45.5509867 C47.3524834,51.602739 50.1817416,53.4203562 53.4720194,51.0038382 C58.4074361,47.3790612 58.4074361,40.2104033 66.328691,45.5509867 C74.2499458,50.8915702 81.0306896,37.4210077 86.4995641,41.0631935 C90.1454804,43.4913174 93.837994,42.6407356 97.577105,38.511448 Z" transform="rotate(-22 65.53 65.968)"></path><path id="[color]color--globalStyle4/ai/people/standing/6" fill="#3536ef" d="M98.2102048,36.2242463 L96.5744927,38.0306451 C93.1571053,41.8046371 89.9591085,42.6062356 86.747533,40.5919696 L86.5334052,40.4535153 C85.0782667,39.4844156 83.4798279,39.4634627 81.6601625,40.202715 L81.3138611,40.3473444 C80.4644734,40.7137967 79.8342255,41.0873884 78.1850414,42.1888435 L76.9523054,43.0177825 C72.1797229,46.239828 69.5882472,47.0063193 66.5682978,45.0764888 L66.3663044,44.9438363 C61.8371254,41.8902218 59.3653377,42.3033827 56.8065706,45.5472181 L56.5255589,45.9152445 C56.1947364,46.3608081 55.4868127,47.3317505 55.1808455,47.7377572 L55.1131786,47.8268584 C54.2496526,48.9518287 53.4829521,49.7585676 52.5888593,50.4152268 C49.8876134,52.3991351 47.6087327,51.0027236 45.4400016,45.6188329 L45.2398205,45.1116832 L45.067269,44.9768274 C38.5165269,39.8571624 34.1025403,39.8571624 32.6455296,45.4039107 L32.5714933,45.7015435 C31.4059884,50.6645276 33.6612982,55.7491323 39.2152484,60.9153601 L39.3404149,61.0294219 L39.2986442,60.7465935 C42.3370107,82.0247796 51.9113915,93.2791233 67.957663,94.2453071 C84.0257153,95.2128024 93.9045686,76.9339721 97.8457735,39.7802916 L98.2102048,36.2242463 Z M96.1364149,40.6994219 L96.0158217,41.7772578 C92.0141479,76.6844293 82.6146132,93.5249388 68.0538286,92.6481996 C53.0105783,91.7424101 44.0042473,81.323559 40.9726166,61.1351793 L40.8418673,60.2353179 L40.6287791,60.0415816 C35.1135464,55.0272246 33.0141071,50.2984966 34.1930313,45.810406 L34.2466376,45.6153266 C35.3305937,41.8428159 38.1882192,41.7852133 43.5257292,45.8102405 L43.9114149,46.1054219 L44.0855163,46.5311991 C46.5848477,52.5057433 49.8343268,54.4234351 53.5359706,51.7047927 C54.4671241,51.0209145 55.2601889,50.2160247 56.1003319,49.1618822 L56.3823773,48.8010939 C56.6909053,48.3991548 57.7137715,46.9921809 57.9273274,46.7126673 C59.9939236,44.0077933 61.5087849,43.6581196 65.2210956,46.1033216 L65.4718686,46.2704804 C69.3101441,48.8582813 72.4717225,47.9731866 77.8475673,44.3438692 L78.4382757,43.9473232 C82.5427131,41.2095432 83.9201713,40.6994219 85.5335337,41.7121194 L85.6465139,41.7852149 C89.0221956,44.0333667 92.4778825,43.7147913 95.8649172,40.9293697 L96.1364149,40.6994219 Z" transform="rotate(-22 65.242 65.253)" opacity="1.00"></path><path id="[color]lips--globalStyle4/ai/people/standing/6" fill="#3536ef" d="M77.8409355,73.8900413 C79.3525039,71.375916 81.4857832,70.7123319 84.2407734,71.8992889 C88.3732586,73.6797244 81.2640302,82.8400009 76.8204061,81.7663006 C72.376782,80.6926003 71.6397559,69.6745746 74.230081,69.6745746 C75.9569644,69.6745746 77.1605826,71.0797301 77.8409355,73.8900413 Z" transform="scale(-1 1) rotate(-1 0 9141.166)" opacity="1.00"></path><path id="[color]color--globalStyle4/ai/people/standing/6" fill="#3536ef" d="M73.2397293,58.9545357 L73.015692,59.5323515 C71.4319767,63.7161175 71.1730254,66.710036 73.679673,67.7387344 C77.8119698,69.4345799 81.7561477,67.2902414 81.7561477,60.8748986 L81.7518641,59.8768553 C81.7048767,54.8024442 81.2508812,53.6373987 79.3943908,53.1937969 L78.8928499,53.0831834 C76.9323875,52.6261602 74.5354647,55.6867082 73.2397293,58.9545357 Z M78.5295976,54.6414028 L78.9377737,54.7307111 C79.9566639,54.9514338 80.1561477,55.5520061 80.1561477,60.8748986 C80.1561477,66.068518 77.4324299,67.5493267 74.28713,66.258533 C72.9949916,65.7282548 73.3255047,63.0790252 74.7270737,59.5442869 C75.7225696,57.0336596 77.7402256,54.4573843 78.5295976,54.6414028 Z" transform="rotate(-27 76.783 60.667)" opacity="1.00"></path><path id="[color]color--globalStyle4/ai/people/standing/6" fill="#3536ef" d="M66.323755,57.4049404 C67.5137601,57.4049404 68.4784497,56.4402507 68.4784497,55.2502457 C68.4784497,54.0602406 64.1690603,54.0602406 64.1690603,55.2502457 C64.1690603,56.4402507 65.13375,57.4049404 66.323755,57.4049404 Z" transform="rotate(-22 66.324 55.881)" opacity="1.00"></path><path id="[color]color--globalStyle4/ai/people/standing/6" fill="#3536ef" d="M84.2736232,52.476636 C85.4636283,52.476636 86.4283179,51.5119463 86.4283179,50.3219413 C86.4283179,49.1319362 82.1189285,49.1319362 82.1189285,50.3219413 C82.1189285,51.5119463 83.0836182,52.476636 84.2736232,52.476636 Z" transform="rotate(-22 84.274 50.953)" opacity="1.00"></path></g><path id="Path-218-Copy--globalStyle4/ai/people/standing/6" fill="#FFF" d="M130.398626,364.273543 C80.4616226,366.406146 17.7766975,362.806527 10.5626757,290.680317 C3.34865396,218.554107 71.0861467,201.408022 118.255014,201.408022 C165.423882,201.408022 227.8777,222.852749 227.966874,281.395905 C228.055065,339.939062 180.335628,362.140941 130.398626,364.273543 Z"></path><path id="[color]color--globalStyle4/ai/people/standing/6" fill="#3536ef" d="M118.256202,200.608022 C90.2628021,200.608022 63.368896,206.321669 43.6015309,218.31285 C18.7937226,233.361641 6.42124211,257.300498 9.76783565,290.759935 C13.1222287,324.297353 28.4728391,345.201636 54.1491031,356.060798 C73.8736272,364.402815 97.212161,366.49158 130.433947,365.072815 C157.425965,363.920097 181.160311,357.114373 198.412217,344.636909 C218.109655,330.390709 228.810049,309.267033 228.768184,281.3947 C228.726263,253.954097 215.135961,232.876894 191.173105,218.75901 C171.00939,206.879417 144.232587,200.608022 118.256202,200.608022 Z M118.256202,202.208022 C143.963866,202.208022 170.462544,208.414277 190.360929,220.137549 C213.861167,233.982878 227.12718,254.557141 227.168185,281.397124 C227.209279,308.756798 216.754016,329.396559 197.474555,343.340455 C180.705006,355.469055 157.618908,362.175014 131.306766,363.431707 L130.36568,363.474272 C97.3641634,364.88363 74.2204975,362.812306 54.7723386,354.587171 C29.636115,343.956406 14.6561483,323.556861 11.3598921,290.600699 C8.07554405,257.763596 20.1432961,234.414341 44.4313684,219.680831 C63.9130156,207.86297 90.5306277,202.208022 118.256202,202.208022 Z" opacity="1.00"></path><path id="[color]color--globalStyle4/ai/people/standing/6" fill="#3536ef" d="M70.3231853,216.8503 C71.5292633,231.666993 70.4882015,242.018302 67.2,247.904226 C62.2676977,256.733113 49.376138,284.639327 88.8831866,320.357973 C128.390235,356.076618 71.8006,454.887615 97.0120985,485.98132 C109.830234,501.790111 137.949113,504.948262 160.004349,501.790111 C189.126949,497.619964 214.15477,496.836692 216.197705,475.076656 C218.061818,455.221318 220.485949,349.451613 216.197705,327.872964 C211.909461,306.294315 169.340368,265.887519 166.669057,247.904226 C164.888183,235.915364 165.665164,222.964134 169,209.050536 C115.368868,207.083712 85.3142765,206.1003 78.8362262,206.1003 C72.3581758,206.1003 69.5204956,209.683633 70.3231853,216.8503 Z" opacity="1.00"></path><path id="[color]color--globalStyle4/ai/people/standing/6" fill="#3536ef" d="M140.158485,537.852659 C116.130477,560.366945 105.133877,572.911374 107.168685,575.485945 C110.220897,579.347801 158.10679,565.629559 159.596351,560.199772 C160.589392,556.579913 159.769686,548.116142 157.137234,534.808456 C155.581251,544.714792 153.832243,550.667102 151.890209,552.665387 C148.977158,555.662813 128.271995,560.906367 127.154506,557.592094 C126.409513,555.382578 130.744173,548.802767 140.158485,537.852659 Z" transform="matrix(-1 0 0 1 266.935 0)" opacity="1.00"></path><path id="[color]color--globalStyle4/ai/people/standing/6" fill="#3536ef" d="M213.964623,533.076572 C189.936616,555.590858 178.940016,568.135287 180.974823,570.709858 C184.027035,574.571714 231.912929,560.853472 233.40249,555.423685 C234.395531,551.803826 233.366776,542.548287 230.316226,527.657067 C229.178341,539.146938 227.638382,545.891015 225.696348,547.889299 C222.783297,550.886726 202.078134,556.13028 200.960645,552.816006 C200.215652,550.606491 204.550312,544.026679 213.964623,533.076572 Z" transform="matrix(-1 0 0 1 414.505 0)" opacity="1.00"></path><path id="Path-224-Copy--globalStyle4/ai/people/standing/6" fill="#FFF" d="M100.599164,107.589307 C78.3616144,109.895305 63.9657254,120.269896 57.4114969,138.713081 C47.5801541,166.377858 38.8242637,232.921158 45.5544529,241.172859 C50.0412456,246.673994 53.9935936,248.601718 57.4114969,246.956031 C63.4623091,244.700264 69.9967146,239.996813 77.0147135,232.845678 C89.8872071,241.172859 118.017601,241.198923 129.101432,241.172859 C153.222206,241.116139 163.319602,236.969655 166.711897,228.506716 C170.149674,228.506716 186.06801,237.339557 187.56908,228.506716 C188.445366,223.350331 189.727657,202.159799 191.329775,190.123959 C197.130425,146.546839 182.127851,119.035289 146.322056,107.589307 C148.23905,131.418026 143.325492,143.332385 131.581381,143.332385 C119.83727,143.332385 109.509864,131.418026 100.599164,107.589307 Z"></path><path id="[color]color--globalStyle4/ai/people/standing/6" fill="#3536ef" d="M146.522807,106.827295 L145.386095,106.463924 L145.481792,107.653459 C147.366244,131.077665 142.642244,142.532385 131.538541,142.532385 C120.231657,142.532385 110.11129,130.85688 101.305646,107.3091 L101.08901,106.729779 L100.473808,106.793574 C77.9414692,109.130141 63.2770075,119.698283 56.6148423,138.445195 C46.1990956,167.754448 38.1855796,233.456343 44.8916673,241.678495 C49.5845762,247.432343 53.8761722,249.525532 57.7157148,247.67683 L58.1635353,247.506035 C63.8395453,245.289374 69.9586346,240.935393 76.4802514,234.473855 L77.09,233.8633 L77.2784134,233.978583 C83.2147728,237.534235 92.2278807,239.752895 103.603123,240.937433 C111.745296,241.785302 118.954353,241.996622 129.060473,241.972857 L129.764036,241.970037 C152.158434,241.842744 163.086176,238.153412 167.059373,229.618728 L167.175,229.3643 L167.251836,229.378799 C167.633554,229.454846 168.137319,229.591632 168.776013,229.791837 L169.451383,230.011633 C170.486316,230.358551 172.660897,231.108684 173.01618,231.227966 C174.377593,231.685048 175.520761,232.040165 176.619892,232.336942 C183.321465,234.146438 187.50269,233.420277 188.314933,228.640748 L188.365232,228.3312 C188.585298,226.918511 188.834048,224.569175 189.163242,220.911497 L190.46787,205.73591 L190.823802,201.812181 C191.209282,197.683326 191.564481,194.30356 191.91989,191.468972 L192.079941,190.229518 C197.92907,146.288195 182.720278,118.398482 146.522807,106.827295 Z M100.025,108.4503 L100.349771,109.301745 C109.244795,132.460439 119.60083,144.132385 131.538541,144.132385 L131.907893,144.128674 C143.779639,143.888668 148.802466,132.010811 147.185147,108.964914 L147.167,108.7213 L148.135731,109.049544 C181.694404,120.64672 195.847123,147.133143 190.657124,188.752573 L190.332735,191.266592 C189.957019,194.262625 189.582435,197.855229 189.172975,202.285135 L187.533332,221.170025 C187.201208,224.82743 186.952957,227.105143 186.737548,228.372684 C186.150768,231.825511 182.933217,232.384309 177.036972,230.79226 C176.106332,230.540977 175.136746,230.244509 174.015552,229.874388 L169.653951,228.392908 L169.548894,228.358685 C168.182931,227.918395 167.306864,227.706716 166.669057,227.706716 L166.127854,227.706716 L165.926491,228.209065 C162.557965,236.612708 152.041445,240.318813 129.056711,240.372862 L127.14599,240.374413 C118.388171,240.367046 111.788038,240.148197 104.547221,239.42542 L103.76884,239.346038 C92.1407764,238.135173 83.0562808,235.828866 77.4063984,232.173972 L76.8582067,231.819348 L76.4008983,232.285332 C69.4583627,239.359572 63.0156472,243.997025 57.0892022,246.206428 C54.0253357,247.677904 50.4122356,245.915645 46.131559,240.667224 C39.9337949,233.068314 47.9014778,167.7422 58.1224722,138.980967 C64.4404827,121.202485 78.1368548,111.068826 99.3381415,108.530276 L100.025,108.4503 Z" opacity="1.00"></path><path id="Path-226-Copy--globalStyle4/ai/people/standing/6" fill="#FFF" d="M181.248172,200.962016 C166.071483,215.887133 162.735879,226.30048 171.241361,232.202057 C183.999583,241.054423 196.337654,223.59867 198.518164,209.183182 C199.971837,199.572857 194.215173,196.832468 181.248172,200.962016 Z"></path><path id="[color]color--globalStyle4/ai/people/standing/6" fill="#3536ef" d="M180.833245,200.257698 L180.697062,200.391623 C165.211542,215.620452 161.709024,226.554885 170.795133,232.859334 C177.054599,237.2025 183.700918,235.828977 189.427957,229.977645 C194.378008,224.920164 198.17419,216.871199 199.318994,209.30283 C200.866231,199.073947 194.593143,195.978067 181.41664,200.073435 L180.833245,200.257698 Z M197.73699,209.063534 C196.640726,216.311 192.990628,224.050227 188.284507,228.858484 C183.059722,234.196662 177.257375,235.39577 171.707244,231.54478 L171.472827,231.3785 C163.999453,225.958371 166.973998,216.399482 180.949542,202.395361 L181.682,201.6663 L182.26353,201.486546 C194.191837,197.851489 199.053749,200.358355 197.73699,209.063534 Z" opacity="1.00"></path><path id="[color]laptop--globalStyle4/ai/people/standing/6" fill="#3536ef" d="M96.2331874,218.443119 L187.507808,218.443119 C190.604118,218.443119 193.191921,216.087017 193.481508,213.004278 L198.131454,163.504278 C198.441373,160.205094 196.018096,157.279338 192.718912,156.969418 C192.532372,156.951895 192.345114,156.943119 192.157753,156.943119 L99.3433413,156.943119 C96.1757253,156.943119 93.5537837,159.405491 93.3551497,162.566872 L90.2449958,212.066872 C90.0372007,215.374059 92.5497541,218.223515 95.856941,218.43131 C95.9822021,218.439181 96.1076793,218.443119 96.2331874,218.443119 Z" opacity="1.00"></path><path id="[color]color--globalStyle4/ai/people/standing/6" fill="#3536ef" d="M96.0693872,209.986812 L94.1882341,212.243184 L92.3491938,214.424838 C88.9719859,218.415568 84.223511,223.944562 80.9453236,227.487642 L80.3178091,228.160574 C76.7558467,231.947509 73.3541203,235.258149 70.1304548,238.017994 C65.1777324,242.258118 60.7964941,245.065252 57.1335705,246.191352 C56.7112498,246.321187 56.4741432,246.768797 56.6039781,247.191118 C56.7338129,247.613438 57.1814233,247.850545 57.603744,247.72071 C61.5194958,246.516883 66.0662501,243.6037 71.171004,239.233418 C74.2248795,236.618935 77.4265094,233.526874 80.7656399,230.015607 L81.4832687,229.256797 C87.004496,223.386851 97.7144381,210.557045 97.5871821,210.639191 L97.9854232,210.238604 L90.4514206,195.210508 L88.1521499,196.523115 L85.8584644,197.848978 C70.2881706,206.911374 59.4843883,214.500035 53.43046,220.637321 C53.120184,220.95187 53.1236474,221.45839 53.4381956,221.768666 C53.7527439,222.078942 54.2592641,222.075478 54.56954,221.76093 C60.7023899,215.543635 71.9299941,207.722429 88.2339781,198.321982 L89.7773483,197.436064 L96.0693872,209.986812 Z" opacity="1.00"></path><path id="Path-222-Copy--globalStyle4/ai/people/standing/6" fill="#FFF" d="M101.312329,191.484481 C103.946035,191.484481 116.05143,196.287386 116.612657,195.674096 C117.173885,195.060806 107.5023,187.950072 101.695634,187.950072 C95.8889676,187.950072 87.8065648,191.533033 87.8065648,193.543617 C87.8065648,195.554202 87.8065648,197.486218 87.3415939,200.876476 C86.8766231,204.266733 85.8660818,208.242522 87.3415939,210.917206 C88.8171061,213.591889 96.0527712,211.659872 99.5405609,210.298825 C103.028351,208.937778 109.251442,214.526911 111.102182,213.262379 C112.952922,211.997848 103.498063,206.064982 99.5405609,206.064982 C95.5830591,206.064982 93.9270448,206.501403 93.9270448,206.064982 C93.9270448,205.628561 97.6201582,203.311731 101.672094,203.812261 C105.72403,204.31279 112.574308,209.0326 114.123308,209.0326 C115.672308,209.0326 109.555651,201.987097 104.139909,201.341963 C98.7241659,200.696828 94.4065778,200.876476 93.9270448,200.876476 C93.4475118,200.876476 98.2480467,198.472075 102.277004,197.890944 C106.305962,197.309813 112.420924,200.306861 114.754896,200.306861 C117.088868,200.306861 109.597118,195.741887 106.00096,194.579967 C102.404801,193.418048 98.3052322,193.592383 95.115796,194.939885 C91.9263598,196.287386 98.6786223,191.484481 101.312329,191.484481 Z"></path><path id="[color]color--globalStyle4/ai/people/standing/6" fill="#3536ef" d="M102.059591,187.150072 C96.1013879,187.150072 87.3705225,190.796566 87.3705225,193.543617 L87.3702169,194.066879 C87.3662754,196.318278 87.2845101,197.902635 86.9908721,200.182523 L86.8190223,201.418914 L86.4576634,203.731052 L86.4136888,204.032423 C85.9361741,207.3664 86.013852,209.506837 87.00507,211.303632 C88.53738,214.081274 94.3756535,213.31512 100.195345,211.04409 C101.129368,210.679604 102.489608,210.934831 104.426559,211.764137 L104.829563,211.94074 C104.967224,212.002391 105.109346,212.067319 105.259323,212.136998 L107.088548,213.009304 C110.25998,214.513486 110.878699,214.632658 111.917458,213.922919 C112.941402,213.223301 112.603019,212.148064 111.580644,211.057237 C110.852951,210.280822 109.685982,209.38485 108.287302,208.51101 C105.273256,206.627954 101.927147,205.264982 99.9045185,205.264982 L99.2274615,205.269054 C98.5643847,205.277162 97.937431,205.297278 97.2942433,205.328471 L96.89,205.3503 L96.9408437,205.330174 C98.5323475,204.694368 100.279439,204.40135 101.937975,204.606226 C103.098143,204.74954 104.626551,205.290734 106.564684,206.197857 C106.909643,206.359312 107.265417,206.531178 107.642657,206.718181 L108.428912,207.113769 C108.815045,207.310587 111.328284,208.621971 111.946756,208.927489 L112.421452,209.157562 C113.393512,209.617989 114.009792,209.8326 114.487266,209.8326 C115.192211,209.8326 115.616803,209.268612 115.516002,208.607941 C115.465258,208.275357 115.290958,207.908779 115.011202,207.48263 C114.510931,206.720573 113.66094,205.766682 112.647481,204.839078 C110.127855,202.532902 107.205596,200.858142 104.598495,200.547579 L103.833943,200.460595 C101.812109,200.241436 99.9245417,200.123413 98.1351765,200.076634 L97.768,200.0683 L98.0547158,199.95978 C99.6871137,199.350737 101.332321,198.88798 102.755171,198.68275 C103.933944,198.512725 105.420562,198.669416 107.281129,199.110938 C107.961827,199.272472 108.663053,199.463409 109.519729,199.715846 L112.897972,200.719383 C114.218392,201.099023 114.418264,201.108973 114.938743,201.107343 L115.118854,201.106861 C115.767033,201.106861 116.295534,200.860928 116.357061,200.180485 C116.396406,199.745371 116.192446,199.409055 115.817192,199.020028 C115.34628,198.531832 114.498951,197.903454 113.393813,197.203334 C111.184372,195.803622 108.392131,194.394239 106.610878,193.818716 L106.208349,193.694537 C103.915904,193.020328 101.435216,192.846776 99.0926226,193.156937 L98.99,193.1713 L99.1182473,193.109211 C100.177375,192.602166 101.113415,192.284481 101.676286,192.284481 C102.476809,192.284481 104.355801,192.793235 107.738333,193.880225 L113.172704,195.648308 L114.731348,196.115452 C116.577452,196.650921 117.110605,196.712685 117.566796,196.214176 C118.27077,195.444898 117.761692,194.864667 116.206299,193.589769 C115.196629,192.762179 113.807987,191.795245 112.31933,190.897111 C108.529023,188.610349 104.826569,187.150072 102.059591,187.150072 Z M102.059591,188.750072 C104.461622,188.750072 107.932098,190.118855 111.492797,192.26709 L111.878934,192.50308 C112.754935,193.045351 113.582398,193.60479 114.293699,194.130503 L114.702,194.4393 L113.267604,193.999318 L108.200153,192.347757 C104.597573,191.188849 102.714773,190.684481 101.676286,190.684481 C100.316186,190.684481 98.093573,191.684932 95.9641677,193.042995 C95.0980112,193.595401 94.4206925,194.105693 94.1271034,194.444971 C93.9643945,194.633001 93.8638706,194.802002 93.8439355,195.059671 C93.7985532,195.646257 94.2457493,195.96868 94.7058577,195.978122 C94.9453576,195.983037 95.220947,195.907379 95.6148158,195.74951 L95.791098,195.676814 C98.8379851,194.389538 102.742625,194.250325 106.118957,195.341219 C107.754568,195.869685 110.432642,197.221442 112.537556,198.554934 L112.765173,198.700586 L113.192776,198.982948 L113.573,199.2453 L112.578703,198.958476 L110.35578,198.295141 C109.295741,197.977704 108.463892,197.74718 107.650558,197.554172 C105.611284,197.070241 103.944836,196.894596 102.526753,197.099138 C100.670855,197.36683 98.524717,198.020019 96.4719009,198.861398 L95.8963909,199.103802 C95.338179,199.345452 94.838261,199.581657 94.4542323,199.783762 L94.1821199,199.932541 C94.060046,200.002436 93.9591805,200.065585 93.8805801,200.121964 C93.7387343,200.223708 93.6475263,200.306215 93.5611585,200.46263 C93.1827923,201.147864 93.7450137,201.676476 94.2910024,201.676476 L94.9155188,201.66485 C97.7897808,201.612519 100.894104,201.717617 104.409238,202.136347 C106.622388,202.399982 109.271763,203.91835 111.567208,206.019336 L111.814731,206.249766 C112.301371,206.710591 112.735903,207.169126 113.088079,207.587762 L113.24,207.7723 L112.849813,207.588128 L112.270824,207.298757 C111.353083,206.830217 109.495636,205.861635 109.155511,205.688268 L108.351014,205.283523 C107.964375,205.091878 107.598695,204.915238 107.242934,204.748728 C105.163927,203.775669 103.502298,203.187303 102.134129,203.018296 C98.4759088,202.566401 93.4910024,204.557874 93.4910024,206.064982 C93.4910024,206.845112 93.9493108,207.037229 94.7189865,207.057132 L94.8669136,207.058947 C94.999037,207.058947 95.1471128,207.054509 95.3385457,207.045103 L96.7368405,206.960608 C97.8076156,206.898173 98.7835955,206.864982 99.9045185,206.864982 C101.55117,206.864982 104.659512,208.131104 107.439538,209.867953 C108.73073,210.674639 109.795021,211.491778 110.413238,212.151386 L110.525344,212.274944 C110.630486,212.394903 110.714669,212.503648 110.777299,212.597439 L110.823,212.6703 L110.810118,212.672835 C110.423846,212.716072 109.662797,212.442361 107.950461,211.643582 L106.168044,210.79574 C105.757144,210.602091 105.40509,210.442612 105.056306,210.29328 C102.759815,209.310038 101.056659,208.990468 99.6136921,209.55356 L99.0181938,209.779346 C94.2439481,211.53725 89.2828079,212.120122 88.4060331,210.530779 C87.6663652,209.189972 87.5734347,207.422622 87.9462689,204.629463 L88.1137622,203.48412 L88.471416,201.177784 L88.4981321,200.985178 C88.8662017,198.30146 88.9658273,196.57564 88.9702155,194.068746 L88.9705223,193.544084 C88.9705225,193.054853 90.6982306,191.795114 93.2458713,190.731078 C96.1331856,189.525175 99.4551984,188.750072 102.059591,188.750072 Z" opacity="1.00"></path><path id="Path-225-Copy--globalStyle4/ai/people/standing/6" fill="#FFF" d="M203.150939,200.621638 C203.823726,197.574957 202.778933,195.148237 200.016561,193.341477 C195.873004,190.631338 181.250359,185.755491 181.250359,187.578869 C181.250359,189.402248 197.569517,196.257358 197.346041,197.270467 C197.122566,198.283576 185.619181,193.231291 181.592256,192.243924 C177.565331,191.256557 169.300786,190.121467 170.197014,191.835053 C171.093243,193.548639 182.428611,195.871326 185.586984,197.270467 C188.745357,198.669608 195.820532,201.535999 195.224404,202.244695 C194.628277,202.953391 175.240242,197.270467 171.934477,197.270467 C168.628713,197.270467 169.588479,198.624646 171.934477,199.623142 C174.280475,200.621638 191.895046,205.380139 191.895046,205.988943 C191.895046,206.394812 186.572851,205.382961 175.928461,202.953391 C174.646962,203.58819 176.10798,204.600041 180.311515,205.988943 C186.616817,208.072296 196.1401,215.286128 198.592937,214.036116 C201.045773,212.786105 199.525104,210.285191 200.826309,209.324088 C202.127514,208.362986 203.836042,206.124717 203.836042,204.184706 C203.836042,202.891365 203.607674,201.703676 203.150939,200.621638 Z"></path><path id="[color]color--globalStyle4/ai/people/standing/6" fill="#3536ef" d="M179.650359 187.578869C179.650359 188.776031 181.505362 189.969096 186.62494 192.621913L189.649982 194.169456 191.89 195.3123 188.978894 194.238353 185.872292 193.084189C183.380504 192.169856 182.067968 191.733021 180.982766 191.466939 178.774897 190.925589 175.669267 190.414284 173.311087 190.229087 171.947774 190.12202 170.857032 190.121606 170.101062 190.248149 168.896412 190.449797 168.126167 191.131368 168.688117 192.205815 169.144261 193.077961 170.691332 193.782225 173.66792 194.727925L174.631755 195.027317C175.277031 195.22342 175.984141 195.430312 176.821627 195.669414L182.473214 197.285941C183.401407 197.562628 183.731621 197.683485 184.107009 197.845154L188.561714 199.784076 189.450652 200.179791 190.420768 200.622643C190.623583 200.71678 190.8179 200.808095 191.003742 200.896642L191.2 200.9913 189.198308 200.531303C188.091778 200.26795 186.663822 199.914074 183.770416 199.192378L179.223025 198.067783C174.563371 196.935516 172.270525 196.470467 171.134477 196.470467 169.107801 196.470467 167.905164 196.977336 168.240604 198.27289 168.432041 199.012265 169.295309 199.674388 170.576184 200.251945L170.867755 200.378956C171.521991 200.654268 172.286588 200.90737 175.499687 201.864693L180.419 203.3203 177.426627 202.654489 175.028686 202.110043 174.773355 202.236523C173.504513 202.865053 173.631697 204.031651 174.807618 204.846053 175.571075 205.374797 176.919292 205.958268 178.884763 206.622964L179.26053 206.748553C180.946171 207.30551 182.929143 208.247977 185.676402 209.736923L187.085189 210.50926 189.811888 212.008383C195.50146 215.107106 196.707084 215.487382 198.156182 214.748895 199.372153 214.129213 199.922672 213.221433 200.100368 211.964545L200.124395 211.778404C200.134996 211.686387 200.144047 211.590649 200.154112 211.467334L200.176353 211.176867C200.232007 210.420358 200.296053 210.152703 200.458813 210.002817L200.501611 209.967585C202.251446 208.675114 203.836042 206.197379 203.836042 204.184706L203.828579 203.768533C203.788771 202.667111 203.589669 201.632804 203.230263 200.668753L203.182 200.5473 203.243687 200.204542C203.731847 197.09459 202.511557 194.540682 199.654462 192.671967 197.607977 191.333442 193.010652 189.427891 188.522494 187.99786 186.323611 187.297245 184.364716 186.782461 182.933427 186.540149L182.495242 186.470827C180.65964 186.203289 179.650359 186.377862 179.650359 187.578869zM181.847 188.0063L181.863091 188.007714C182.097162 188.030273 182.366211 188.066889 182.666354 188.117702 183.921849 188.330252 185.653514 188.777497 187.613383 189.388856L188.036758 189.522347C192.397645 190.911826 196.882406 192.77072 198.778661 194.010987 201.26774 195.638997 202.169462 197.733409 201.569759 200.449133L201.51481 200.69797 201.613909 200.932743C202.028007 201.913771 202.236042 202.995714 202.236042 204.184706 202.236042 205.556453 201.039934 207.486374 199.730208 208.542172L199.551007 208.680592C198.881949 209.174774 198.697488 209.705606 198.599276 210.827132L198.552105 211.422698C198.540973 211.548103 198.530662 211.637725 198.516122 211.740568 198.406233 212.517845 198.136049 212.963365 197.429692 213.323338 196.640917 213.725312 194.9209 212.985625 189.219659 209.858456L186.973053 208.621229 186.438791 208.330238C183.762434 206.879719 181.779691 205.927966 180.048737 205.326381L179.410701 205.111779C178.606155 204.839815 177.91596 204.584269 177.342837 204.34736L176.985 204.1943 179.278939 204.708304C182.50361 205.4233 185.061521 205.960587 186.953981 206.320379L187.902917 206.495937C188.789569 206.654787 189.489727 206.763532 190.006632 206.822387 190.376204 206.864466 190.661076 206.882418 190.876473 206.874091 191.030908 206.868121 191.162939 206.849592 191.292706 206.804991 191.620927 206.692182 191.895046 206.430733 191.895046 205.988943L191.892465 205.76102C191.858043 205.175607 191.428779 204.93339 186.411313 203.428204L173.811783 199.685322C172.389199 199.249836 171.872633 199.067868 171.447774 198.887041L171.224916 198.788999C170.789963 198.591176 170.421312 198.383995 170.149921 198.186942L170.087 198.1403 170.1766 198.125639C170.375558 198.097692 170.620694 198.07915 170.909614 198.072851L171.134477 198.070467C172.244357 198.070467 175.136517 198.699993 181.092923 200.174671L189.366517 202.226714C194.63269 203.503838 194.559859 203.326453 195.036618 202.759665 195.517013 202.188556 195.261778 201.653078 194.750387 201.198814 194.530549 201.003534 194.223804 200.793233 193.825539 200.558155L193.618759 200.438507C192.858189 200.006518 191.810376 199.493463 190.452873 198.876928L189.517225 198.457194 187.736358 197.679273 184.434061 196.246593C184.099916 196.113426 183.704289 195.981099 182.871059 195.734218L176.474276 193.904603C175.849559 193.723337 175.299858 193.559638 174.786259 193.401363L174.197806 193.217201 173.549305 193.005767C172.196989 192.55434 171.192229 192.14915 170.623915 191.84503L170.543 191.8003 170.695338 191.784518C171.296714 191.72896 172.149426 191.742783 173.185818 191.824175 175.281075 191.988724 178.015789 192.425084 180.096061 192.901189L180.85116 193.084295C181.831025 193.341795 183.104184 193.772725 185.356141 194.599228L190.779775 196.611368C191.988449 197.05321 192.761792 197.321639 193.569921 197.582649L194.120013 197.755579C194.728472 197.940943 195.22124 198.068896 195.607889 198.138893 196.57158 198.313354 197.146599 198.261812 197.327261 197.442791 197.503337 196.644564 197.031931 196.264813 194.947691 195.122204L194.045152 194.633706C193.671354 194.434487 193.257846 194.218055 192.783035 193.972756L188.043561 191.553709 186.860503 190.939821C185.246617 190.09453 184.033688 189.422191 183.083869 188.836846L182.613076 188.539339C182.392914 188.396287 182.195753 188.261874 182.022265 188.136502L181.847 188.0063zM76.1929757 168.201079C76.2937849 167.770906 76.7242316 167.503903 77.1544051 167.604712 77.5487309 167.697121 77.8059477 168.066516 77.7684299 168.458784L77.7507719 168.566142 67.9788981 210.264707C67.8780889 210.694881 67.4476422 210.961883 67.0174687 210.861074 66.6231429 210.768665 66.3659261 210.39927 66.4034439 210.007003L66.4211019 209.899644 76.1929757 168.201079z" opacity="1.00"></path><path id="Path-236--globalStyle4/ai/people/standing/6" fill="#FFF" fill-rule="nonzero" d="M81.6314595,231.711548 L81.122468,233.765883 L80.792787,235.120251 C77.2855682,249.636897 75.8690112,259.095092 76.5536379,263.606831 C78.0255484,273.306825 81.2675943,281.685566 86.2819154,288.732846 L86.6751009,289.280368 C90.0897368,293.991 93.7371563,297.861239 101.520636,305.423303 L104.928636,308.732287 L106.682907,310.45418 C112.413937,316.113292 115.530578,319.567808 118.448517,323.635868 C122.926432,329.878778 125.219548,335.795998 125.219548,341.986283 L125.211431,343.335326 L125.188046,344.803398 C124.853702,361.47237 121.857947,405.508198 116.202501,476.863706 C116.167592,477.304153 116.496346,477.689504 116.936792,477.724413 C117.377239,477.759322 117.76259,477.430568 117.797499,476.990122 L119.183425,459.368391 C124.274709,394.093509 126.819548,354.980841 126.819548,341.986283 C126.819548,335.596248 124.532019,329.525285 120.11172,323.215453 L119.748647,322.703311 L119.310092,322.098417 C116.227341,317.892304 112.832327,314.228063 106.477515,308.008858 L101.345819,303.01932 L99.1969828,300.906535 C93.5114608,295.274672 90.5052867,291.908682 87.5855886,287.805249 C82.7217413,280.969449 79.5710082,272.826697 78.1355292,263.366789 C77.4428868,258.802227 79.1212037,248.333415 83.1835967,232.099967 C83.2908559,231.671357 83.0303489,231.236948 82.601738,231.129689 C82.1731271,231.02243 81.7387186,231.282937 81.6314595,231.711548 Z"></path><path id="Path-236-Copy--globalStyle4/ai/people/standing/6" fill="#FFF" fill-rule="nonzero" d="M97.1940842,234.4829 C94.1636745,254.909575 96.9889407,271.264451 105.702674,283.510998 L106.082784,284.036953 L106.483497,284.573926 C110.330844,289.645558 115.381965,293.920515 125.711767,301.448465 L131.133608,305.375769 C139.432221,311.414321 143.365426,314.590437 147.205248,318.579553 C152.667792,324.254483 155.458265,329.662492 155.458265,335.364571 L155.453291,336.724721 L155.432108,338.760744 C155.196092,356.298152 153.362876,403.816452 149.933112,481.28651 C149.913571,481.727905 150.255551,482.101569 150.696946,482.121907 C151.138342,482.140652 151.512005,481.798671 151.531546,481.357276 L152.875171,450.650742 C155.664078,386.061895 157.058265,347.641091 157.058265,335.364571 C157.058265,329.322334 154.212377,323.67266 148.735483,317.866109 L148.357984,317.469959 L147.877084,316.975008 C144.103272,313.12768 140.116303,309.933506 132.090224,304.093074 L126.643251,300.147445 L124.543991,298.608137 C115.104622,291.64007 110.571948,287.594606 107.006347,282.583401 C98.5567555,270.708087 95.8026302,254.76503 98.7767621,234.717699 C98.8416001,234.280655 98.5398671,233.873798 98.1028227,233.808961 C97.6657782,233.744123 97.2589222,234.045856 97.1940842,234.4829 Z"></path><path id="Path-236-Copy-2--globalStyle4/ai/people/standing/6" fill="#FFF" fill-rule="nonzero" d="M129.782433,240.038106 C127.390956,258.93114 130.538485,274.515045 139.245187,286.75171 C143.105044,292.176472 147.722757,296.396627 156.87396,303.486496 L161.289448,306.887528 L162.293333,307.666293 L163.83302,308.873992 C169.450417,313.314634 172.859185,316.425069 175.723859,319.90317 C179.819733,324.876112 181.908427,329.854555 181.908427,335.364571 L181.892677,340.007985 C181.786509,358.488869 181.143608,405.592539 179.96405,481.309432 C179.957167,481.751206 180.309717,482.114914 180.751491,482.121895 C181.193265,482.128678 181.556973,481.776128 181.563856,481.334354 L182.605036,412.356775 C183.207307,370.637485 183.508427,344.974757 183.508427,335.364571 C183.508427,329.449714 181.275007,324.126316 176.958886,318.885963 L176.472335,318.304566 C173.276119,314.54569 169.389243,311.145197 162.781561,306.019298 L157.863282,302.228953 C148.828361,295.229415 144.29137,291.083951 140.54886,285.824113 C132.092238,273.938917 129.025817,258.756593 131.369767,240.239031 C131.425251,239.800701 131.114893,239.400385 130.676563,239.344902 C130.238232,239.289418 129.837917,239.599776 129.782433,240.038106 Z"></path><path id="Path-236-Copy-3--globalStyle4/ai/people/standing/6" fill="#FFF" fill-rule="nonzero" d="M150.172672,234.691173 C152.039087,251.015637 157.163727,265.200469 165.54807,277.233461 L166.55853,278.656441 L167.516697,279.97034 C169.517776,282.673767 171.507429,285.086932 175.881692,290.161703 L181.922043,297.143798 L183.251513,298.696668 C188.981843,305.421786 192.381669,309.861348 195.391276,314.741215 C199.904718,322.059446 202.236042,328.762777 202.236042,335.364571 L202.236042,476.926914 C202.236042,477.368742 202.594214,477.726914 203.036042,477.726914 C203.47787,477.726914 203.836042,477.368742 203.836042,476.926914 L203.836042,335.364571 C203.836042,328.428238 201.409674,321.451621 196.753105,313.901321 L196.32134,313.208388 L195.839276,312.451321 C192.759349,307.669136 189.137086,303.080655 183.143391,296.110113 L176.563374,288.501316 L174.655946,286.273719 C171.082812,282.075626 169.511994,280.051589 167.320894,276.972149 C158.820143,265.024934 153.63343,250.874993 151.762316,234.509426 C151.712128,234.070458 151.315588,233.755289 150.87662,233.805478 C150.437652,233.855666 150.122484,234.252205 150.172672,234.691173 Z"></path></g></g></svg></g></g><g transform="translate(897,988.5)">
<g><svg xmlns="http://www.w3.org/2000/svg" width="480" height="446" viewBox="0 0 480 446"><g id="Symbols--globalStyle4/objects/animals/3" fill="none" fill-rule="evenodd" stroke="none" stroke-width="1"><g id="Group--globalStyle4/objects/animals/3" transform="translate(101.53 187)"><path id="[color]dog--globalStyle4/objects/animals/3" fill="#3536ef" d="M46.1797758,116.239924 C37.3753579,101.023921 30.545571,94.7052693 25.6904151,97.2839691 C20.8352593,99.8626689 22.1685643,108.77844 29.6903302,124.031282 C23.4537657,128.83305 19.6437097,132.199158 18.2601622,134.129606 C16.184841,137.025277 13.2558565,139.252782 13.679827,139.906676 C14.1037974,140.560571 20.4214635,136.296302 20.4214635,139.046988 C20.4214635,141.797673 12.5376803,157.323183 13.679827,161.010474 C14.2878118,162.973284 16.8748719,158.64119 18.2601622,160.164633 C19.4772475,161.503096 18.2601622,164.192837 18.2601622,171.688668 C18.2601622,179.184499 19.9406498,186.43141 21.4137739,188.641265 C22.8868979,190.851119 14.0781624,199.405624 14.0781624,200.794791 C14.0781624,202.183958 18.9294576,199.405624 18.9294576,200.794791 C18.9294576,202.183958 6.32344048,217.57775 6.32344048,218.642554 C6.32344048,219.707357 10.9451185,216.723345 10.9451185,217.682949 C10.9451185,218.642554 -1.07488585,235.446755 0.0779205349,236.401639 C1.23072692,237.356523 4.47065572,234.163124 4.47065572,234.968639 C4.47065572,235.774153 0.794757733,250.336806 2.63270673,253.756112 C3.85800606,256.03565 4.82671409,257.655558 5.53883081,258.615837 L37.9411534,258.615837 C41.0045141,254.291886 41.4023824,250.2388 39.1347582,246.456579 C36.8671339,242.674358 32.3856863,241.238885 25.6904151,242.150161 C28.3570252,238.141357 29.6903302,236.697455 29.6903302,237.818454 C29.6903302,239.499953 31.2138083,241.403652 31.8645589,239.249768 C32.5153095,237.095885 37.4832678,228.993871 37.4832678,229.93628 C37.4832678,230.878688 37.9374445,233.787172 39.1347582,234.377906 C40.3320718,234.968639 44.5926338,222.154921 47.6107005,220.985593 C50.6287672,219.816265 56.3385137,215.922888 55.6169561,219.757596 C54.8953984,223.592304 56.526321,221.711871 61.1085494,216.110021 C65.6907778,210.508171 80.0396601,196.945584 80.5723989,188.641265 C81.1051377,180.336945 73.7531417,163.810205 75.8979202,163.810205 C78.0426987,163.810205 94.0281847,161.343462 114.143047,169.928981 C127.552955,175.652661 141.811814,178.737834 156.919625,179.184499 C154.120417,191.799041 152.720813,199.002471 152.720813,200.794791 C152.720813,203.48327 155.789586,197.066016 156.919625,197.769021 C158.049664,198.472026 156.186194,221.567095 158.960314,224.798675 C161.734434,228.030255 160.272376,218.529599 162.318403,219.757596 C164.36443,220.985593 168.379084,243.992396 171.491628,246.456579 C174.604173,248.920761 172.359041,241.581113 174.469657,243.027158 C176.580273,244.473202 182.029761,257.84751 185.799404,258.615837 C188.3125,259.128054 196.116191,259.128054 209.210479,258.615837 C213.133498,253.291748 213.133498,248.733048 209.210479,244.939736 C205.287459,241.146424 200.501475,240.216566 194.852526,242.150161 L198.341928,181.912179 C207.403774,178.661794 213.877633,173.243162 217.763505,165.656282 C223.592314,154.275963 219.316239,136.388748 221.287535,137.11257 C223.258831,137.836393 224.08194,139.80198 224.994191,137.804884 C225.906443,135.807787 221.287535,118.032417 219.887398,116.239924 C218.48726,114.447432 220.476705,114.751955 222.843007,116.239924 C225.209309,117.727893 225.798616,118.360437 222.843007,112.00884 C219.887398,105.657242 222.105839,87.3833871 224.994191,82.180511 C226.919759,78.7119269 229.928392,75.5924431 234.02009,72.8220597 C234.837956,79.036278 235.524853,82.3091651 236.080783,82.6407211 C236.914678,83.138055 238.983879,80.0393623 238.983879,80.9426959 C238.983879,81.8460294 239.29208,90.6168312 240.594115,90.6168312 C241.896149,90.6168312 241.933684,85.8007204 242.783843,86.6029189 C243.634003,87.4051175 246.059366,95.6221308 248.277037,96.45305 C250.494709,97.2839691 249.878932,95.5417924 250.742854,95.5417924 C251.606777,95.5417924 254.534061,100.377505 256.55405,100.057001 C258.574039,99.7364965 257.643806,97.2839691 258.748992,97.2839691 C259.854179,97.2839691 260.741664,95.3382713 261.418956,94.5431626 C262.096248,93.7480539 262.883849,90.1885193 263.807827,90.1885193 C264.731805,90.1885193 267.733324,90.3203075 267.733324,87.2009708 C267.733324,84.081634 268.328248,82.6407211 269.290595,82.6407211 C270.252941,82.6407211 271.494712,84.7735225 272.265632,83.7071218 C273.036551,82.6407211 272.377818,72.4162863 273.175846,72.4162863 C273.973875,72.4162863 276.452203,74.0400409 276.87551,72.8220597 C277.157715,72.0100722 276.524631,69.794075 274.976258,66.1740679 C276.444001,61.8668989 276.69597,59.243784 275.732164,58.304723 C274.286455,56.8961315 269.413208,56.0378395 267.733324,56.0378395 C266.053441,56.0378395 261.259225,56.6846864 259.631682,54.2109454 C258.004138,51.7372044 259.020076,50.8722395 260.595071,51.3047219 C262.170066,51.7372044 261.55846,50.8793294 260.595071,48.8276445 C259.631682,46.7759596 257.844407,44.1339383 259.631682,44.1339383 C261.418956,44.1339383 261.991688,37.696848 255.134362,35.3210642 C248.277037,32.9452805 245.918403,37.8773316 238.983879,32.9452805 C232.049355,28.0132293 228.71537,24.335288 228.193847,19.1352813 C227.707918,14.290168 229.503916,2.09580548 228.193847,0.245279069 C226.883779,-1.60524734 222.356649,7.48422431 221.287535,11.7759874 C219.339772,19.5949286 217.763505,29.2696694 213.774319,31.0372164 C204.040544,35.3501017 194.621932,51.0706296 177.605949,78.3373371 C160.589966,105.604045 132.92455,106.560675 104.411235,109.284757 C85.4023585,111.100812 65.9918721,113.419201 46.1797758,116.239924 Z" opacity="1.00"></path><path id="Path-686--globalStyle4/objects/animals/3" fill="#FFF" fill-rule="nonzero" d="M180.61006,72.0093579 C180.860203,71.7510334 181.272398,71.7444018 181.530723,71.9945457 C188.478901,78.7226909 194.83093,83.5509334 200.578891,86.480442 C202.622891,87.522188 205.078583,88.4378362 207.961246,89.2772819 L208.972364,89.5643322 C211.081831,90.1508515 212.71777,90.5355392 216.177149,91.2834337 L218.800351,91.8494586 C221.518347,92.4453732 222.594504,92.7477668 223.249129,93.1380614 C223.600367,93.3474735 223.831583,93.597676 223.87874,93.9601669 C223.956866,94.5607019 223.605993,94.9168151 222.898128,95.1273108 L222.814664,95.1498234 L222.681292,95.210416 C216.342138,97.9909333 208.51979,97.3825498 199.239132,93.4291875 L198.757798,93.2217204 C192.260688,90.3886988 187.046561,86.5459032 183.245155,82.2924467 L182.882311,81.8799493 C180.205011,78.7871612 178.537928,75.7475649 179.192485,74.9202089 C179.705911,74.271242 180.053864,74.4568162 181.035533,75.3597502 L181.453453,75.7550676 C182.025624,76.3066505 183.171597,77.4246677 183.607149,77.8385883 C186.527603,80.6139977 189.47361,83.0187653 193.08665,85.3586952 C194.702996,86.4054968 196.390452,87.3915775 198.156476,88.3113926 C203.545898,91.1184162 209.637619,92.950531 215.271772,93.7333068 C217.52984,94.0470294 219.557344,94.1611553 221.022795,94.0796124 C221.240704,94.0674871 221.442464,94.0511037 221.62629,94.0309754 L221.84291,94.0039024 C219.323454,93.2857695 211.442917,91.568061 208.553565,90.796973 L208.189838,90.697414 C204.978823,89.7913365 202.254414,88.7959438 199.987588,87.6406322 C194.11069,84.6454096 187.659091,79.741483 180.624872,72.9300212 C180.366547,72.6798773 180.359916,72.2676823 180.61006,72.0093579 Z M181.094348,77.2195772 L181.187376,77.3800157 C181.905136,78.5949172 182.938547,79.9952462 184.216085,81.4247054 C187.89505,85.5411601 192.956752,89.2716191 199.278277,92.0280783 C206.241386,95.0642955 212.303262,96.1713587 217.475322,95.3694185 L217.802073,95.3158518 L217.607931,95.3014292 C216.945319,95.2482218 216.248642,95.1749314 215.527859,95.0815447 L215.092575,95.0231011 C209.317566,94.2207556 203.083623,92.3458668 197.554948,89.4663141 C195.751972,88.5272533 194.029094,87.5204732 192.378794,86.451682 C188.907848,84.2037772 186.040705,81.8978178 183.23549,79.277557 L182.404639,78.4896395 L181.094348,77.2195772 Z"></path></g></g></svg></g></g></svg>