<?xml version="1.0" encoding="UTF-8"?>
<svg id="illustration-builder" width="1074" height="945" viewBox="-10 -30 1144 1005" version="1.1" xmlns="http://www.w3.org/2000/svg" xmlns:xlink="http://www.w3.org/1999/xlink" style="pointer-events: inherit;"><g transform="translate(182.5,247)">
<g><svg xmlns="http://www.w3.org/2000/svg" width="750" height="638" viewBox="0 0 750 638"><g id="Symbols--globalStyle4/objects/furniture/office/table/1" fill="none" fill-rule="evenodd" stroke="none" stroke-width="1"><g id="globalStyle4/objects/furniture/office/table/1--globalStyle4/objects/furniture/office/table/1"><path id="[color]table--globalStyle4/objects/furniture/office/table/1" fill="#f81f69" d="M668 296L487 296C483.410149 296 480.5 298.910149 480.5 302.5L480.5 631.5C480.5 635.089851 483.410149 638 487 638L668 638C671.589851 638 674.5 635.089851 674.5 631.5L674.5 302.5C674.5 298.910149 671.589851 296 668 296zM487 301L668 301C668.828427 301 669.5 301.671573 669.5 302.5L669.5 631.5C669.5 632.328427 668.828427 633 668 633L487 633C486.171573 633 485.5 632.328427 485.5 631.5L485.5 302.5C485.5 301.671573 486.171573 301 487 301zM259 296L78 296C74.4101491 296 71.5 298.910149 71.5 302.5L71.5 631.5C71.5 635.089851 74.4101491 638 78 638L259 638C262.589851 638 265.5 635.089851 265.5 631.5L265.5 302.5C265.5 298.910149 262.589851 296 259 296zM78 301L259 301C259.828427 301 260.5 301.671573 260.5 302.5L260.5 631.5C260.5 632.328427 259.828427 633 259 633L78 633C77.1715729 633 76.5 632.328427 76.5 631.5L76.5 302.5C76.5 301.671573 77.1715729 301 78 301z" opacity="1.00"></path><rect id="Rectangle-Copy-204--globalStyle4/objects/furniture/office/table/1" width="648" height="22" x="51" y="295.5" fill="#FFF" rx="4"></rect><path id="Rectangle--globalStyle4/objects/furniture/office/table/1" fill="#000" fill-rule="nonzero" d="M695,294.7 L55,294.7 C52.3490332,294.7 50.2,296.849033 50.2,299.5 L50.2,313.5 C50.2,316.150967 52.3490332,318.3 55,318.3 L695,318.3 C697.650967,318.3 699.8,316.150967 699.8,313.5 L699.8,299.5 C699.8,296.849033 697.650967,294.7 695,294.7 Z M55,296.3 L695,296.3 C696.767311,296.3 698.2,297.732689 698.2,299.5 L698.2,313.5 C698.2,315.267311 696.767311,316.7 695,316.7 L55,316.7 C53.2326888,316.7 51.8,315.267311 51.8,313.5 L51.8,299.5 C51.8,297.732689 53.2326888,296.3 55,296.3 Z"></path></g></g></svg></g></g><g transform="translate(361.5,308.5)">
<g><svg xmlns="http://www.w3.org/2000/svg" width="417" height="260" viewBox="0 0 417 260"><g id="Symbols--globalStyle4/objects/decor/office/4" fill="none" fill-rule="evenodd" stroke="none" stroke-width="1"><g id="globalStyle4/objects/decor/office/4--globalStyle4/objects/decor/office/4"><path id="[color]laptop--globalStyle4/objects/decor/office/4" fill="#3536ef" d="M296.980703,140.5 C299.189842,140.5 300.980703,142.290861 300.980703,144.5 C300.980703,144.799251 300.947121,145.097556 300.880589,145.389317 L282.638995,225.383418 C282.281523,226.951025 281.031058,228.126163 279.498248,228.421757 C280.915168,228.920315 281.929646,230.270152 281.929646,231.856932 C281.929646,233.868943 280.298588,235.5 278.286578,235.5 L119.785103,235.5 C117.773092,235.5 116.142035,233.868943 116.142035,231.856932 C116.142035,229.844921 117.773092,228.213864 119.785103,228.213864 L139.784893,228.214675 C138.303999,227.628413 137.256583,226.183575 137.256583,224.4941 C137.256583,224.185832 137.292218,223.878598 137.36278,223.578514 L156.172543,143.584414 C156.597473,141.777275 158.209921,140.5 160.066346,140.5 L296.980703,140.5 Z" opacity="1.00"></path><path id="Rectangle-Copy-3--globalStyle4/objects/decor/office/4" fill="#FFF" d="M165.685935,144.983776 L287.81691,144.983776 C290.026049,144.983776 291.81691,146.774637 291.81691,148.983776 C291.81691,149.280446 291.783905,149.576195 291.718505,149.865566 L275.665969,220.892115 C275.253865,222.715522 273.63377,224.010324 271.764373,224.010324 L149.128922,224.010324 C146.919783,224.010324 145.128922,222.219463 145.128922,220.010324 C145.128922,219.70463 145.163965,219.399943 145.233365,219.10223 L161.790378,148.075682 C162.212483,146.264928 163.826634,144.983776 165.685935,144.983776 Z"></path><path id="Path-619--globalStyle4/objects/decor/office/4" fill="#FFF" fill-rule="nonzero" d="M278.888475,235 C279.164617,235 279.388475,235.223858 279.388475,235.5 C279.388475,235.74546 279.2116,235.949608 278.97835,235.991944 L278.888475,236 L119.377675,236 C119.101532,236 118.877675,235.776142 118.877675,235.5 C118.877675,235.25454 119.05455,235.050392 119.287799,235.008056 L119.377675,235 L278.888475,235 Z"></path><path id="obj-copy--globalStyle4/objects/decor/office/4" fill="#FFF" d="M301.442738,199.122914 C300.50261,223.374305 307.341713,235.5 321.960046,235.5 C336.578379,235.5 343.260649,223.374305 342.006857,199.122914 C338.541198,195.886208 331.603074,194.267856 321.192484,194.267856 C310.781895,194.267856 304.198646,195.886208 301.442738,199.122914 Z"></path><path id="[color]cup--globalStyle4/objects/decor/office/4" fill="#3536ef" d="M321.773715,193.769547 L321.192484,193.767856 C310.645378,193.767856 303.94268,195.415572 301.062042,198.798768 L300.949819,198.93057 L300.943113,199.103546 C299.993452,223.600866 306.986778,236 321.960046,236 C336.787486,236 343.635264,223.843033 342.541758,199.828443 L342.495761,198.895371 L342.348134,198.757496 C338.831741,195.473408 331.978865,193.829313 321.773715,193.769547 Z M321.760841,194.769375 C331.358616,194.82518 337.868107,196.299822 341.27526,199.143882 L341.516987,199.353812 L341.507524,199.148729 C342.74851,223.152412 336.2195,235 321.960046,235 L321.534418,234.996444 C307.70483,234.76411 301.154007,223.145979 301.916729,199.858801 L301.935987,199.319812 L301.823434,199.44706 C304.407627,196.412027 310.688784,194.825084 320.645733,194.769375 L321.760841,194.769375 Z" opacity="1.00"></path><path id="[color]cup--globalStyle4/objects/decor/office/4" fill="#3536ef" d="M321.22567,203.809924 C331.997842,203.809924 341.261216,201.78531 341.261216,199.978258 C341.261216,198.171205 331.997842,195.16231 321.22567,195.16231 C310.453498,195.16231 302.251729,198.171205 302.251729,199.978258 C302.251729,201.78531 310.453498,203.809924 321.22567,203.809924 Z" opacity="1.00"></path></g></g></svg></g></g><g transform="translate(141.5,173)">
<g><svg xmlns="http://www.w3.org/2000/svg" width="637" height="723" viewBox="0 0 637 723"><g id="Symbols--globalStyle4/office/people/sittingback/1" fill="none" fill-rule="evenodd" stroke="none" stroke-width="1"><g id="globalStyle4/office/people/sittingback/1--globalStyle4/office/people/sittingback/1"><g id="Group-65--globalStyle4/office/people/sittingback/1" transform="translate(518.966 560.605)"><polygon id="Path-605-Copy-2--globalStyle4/office/people/sittingback/1" fill="#FFF" points="15.5412496 2.66659993 45.6375913 18.5665541 40.1514696 32.1148072 2.92919061 13.6978719" transform="rotate(3 24.283 17.39)"></polygon><path id="Path-605--globalStyle4/office/people/sittingback/1" fill="#000" fill-rule="nonzero" d="M46.1490908,18.1968427 L14.9272825,1.70230251 L1,13.8839489 L40.0680969,33.2141627 L46.1490908,18.1968427 Z M15.1519697,3.63073836 L44.1229697,18.9357384 L39.2309697,31.0157384 L3.85496972,13.5117384 L15.1519697,3.63073836 Z" transform="rotate(3 23.575 17.458)"></path></g><polygon id="Path-605-Copy-3--globalStyle4/office/people/sittingback/1" fill="#FFF" points="478.390331 598.422127 508.486673 614.322081 503.000551 627.870334 465.778272 609.453399" transform="rotate(14 487.132 613.146)"></polygon><path id="Path-605-Copy--globalStyle4/office/people/sittingback/1" fill="#000" fill-rule="nonzero" d="M509.707018,613.95237 L478.485209,597.45783 L464.557927,609.639476 L503.626024,628.96969 L509.707018,613.95237 Z M478.709643,599.386 L507.680643,614.692 L502.789643,626.77 L467.412643,609.267 L478.709643,599.386 Z" transform="rotate(14 487.132 613.214)"></path><g id="Group-2--globalStyle4/office/people/sittingback/1" transform="rotate(-22 297.053 -322.033)"><path id="Path-259-Copy--globalStyle4/office/people/sittingback/1" fill="#FFF" d="M54.1753996,42.1866936 C46.9799886,80.5902681 44.3451838,105.776324 46.2709852,117.744862 C49.1596874,135.697668 49.6329079,180.484543 55.1124637,192.664112 C60.5920195,204.843682 81.7937181,188.979846 80.3588304,177.212991 C78.9239426,165.446136 69.0184651,156.689827 66.4538345,119.652282 C63.889204,82.6147363 65.9018935,37.9731213 65.9018935,33.5466534 C65.9018935,31.5511727 65.8317352,26.5594952 67.2115839,22.5129239 C68.7816297,17.9085771 71.2824241,14.7542989 70.5344806,14.2884659 C66.3544355,11.6850567 65.1519212,17.9017649 63.0169441,23.1860187 C60.881967,28.4702725 51.8066434,15.1281766 50.3068943,9.37863034 C48.8071452,3.62908405 47.3458192,1.51341236 46.5156692,3.56810577 C45.945887,4.97836614 46.3106404,7.05763982 47.0024287,9.83553702 C47.9632337,13.6936786 50.6029636,18.1676799 52.5610833,20.5641587 C55.929067,24.6861242 46.8639253,17.1195508 44.818797,12.9201928 C42.7736688,8.72083485 39.648818,1.17498695 39.648818,5.60516631 C39.648818,10.0353457 41.1925287,13.0870266 43.8791527,16.4707461 C46.5657767,19.8544656 51.6334119,23.733772 49.9347798,23.4196802 C48.2361478,23.1055883 42.2456762,20.821495 40.6432481,16.6667217 C39.0408201,12.5119485 37.1641367,9.93725478 36.0857105,9.93725478 C35.0072843,9.93725478 37.2034762,18.4167478 39.648818,20.5641587 C42.0941599,22.7115696 46.1010167,25.2030698 46.1010167,26.0685383 C46.1010167,26.9340068 43.3865645,27.5229721 40.5170607,25.8873862 C37.6475568,24.2518004 36.0857105,22.1254709 36.0857105,24.0970046 C36.0857105,26.0685383 38.310749,27.9979614 42.5092971,29.694285 C45.3083293,30.8251674 49.1970301,34.9893036 54.1753996,42.1866936 Z" transform="scale(-1 1) rotate(-22 0 398.904)"></path><path id="Path-259--globalStyle4/office/people/sittingback/1" fill="#000" fill-rule="nonzero" d="M45.7797661,3.2684205 C45.1832245,4.74491283 45.368586,6.56186384 46.2319825,10.028859 L46.3376891,10.4316622 C46.9349016,12.5997898 48.0600184,15.0739848 49.3672788,17.305293 L49.575857,17.6573371 L49.5017315,17.5821876 C47.7084154,15.7631608 46.1859724,13.8883524 45.543881,12.569916 L43.8298078,8.94027616 C42.7641947,6.68843868 42.053776,5.3207618 41.4641403,4.48673086 L41.3765715,4.36558475 C40.8037544,3.59124239 40.2942265,3.21136114 39.5930943,3.56248517 C39.0015044,3.8587509 38.8546621,4.48928917 38.8546621,5.60516631 C38.8546621,9.90004036 40.1769118,13.087077 43.2584677,16.968201 C43.5425584,17.3260044 43.8597861,17.6988063 44.2108083,18.0894298 C44.5727257,18.4921775 44.9665408,18.9096134 45.4029555,19.3554069 L45.9366387,19.8923903 L48.155857,22.0643371 L47.9750453,21.9936514 C45.2856585,20.9051616 42.3099171,18.7497404 41.3955012,16.378844 L41.1359789,15.724117 C39.5200932,11.7581033 37.6288308,9.13725478 36.0915546,9.13725478 C35.0337457,9.13725478 34.8972868,9.97652989 35.0543872,11.3844453 C35.153332,12.2711766 35.4148382,13.4458608 35.785737,14.6763128 C36.6526304,17.5522195 37.8730728,20.0643144 39.1267821,21.1652766 C39.4551025,21.4535957 39.8205932,21.7569481 40.2354999,22.0873113 L40.9912493,22.6776018 L42.998136,24.1939996 C43.5563812,24.6167034 43.9613793,24.9320933 44.3016638,25.2122763 L44.4615761,25.3454657 C44.7176033,25.5613491 44.9212248,25.7468195 45.0733644,25.9031024 L45.141857,25.9763371 L45.0759847,26.0009003 C44.8848181,26.0606413 44.6368497,26.1028076 44.3516792,26.1168219 C43.3313562,26.1669642 42.0990644,25.86495 40.9190614,25.1923612 C40.6421683,25.0345351 40.3658173,24.8649175 40.0846104,24.6814166 L39.6944235,24.4143733 C38.9523943,23.8943366 37.6873653,22.9692806 37.4020432,22.8051577 C36.2321116,22.1321898 35.2915546,22.6410528 35.2915546,24.0970046 C35.2915546,26.4997385 37.7341344,28.6254607 42.2154559,30.4360321 L42.3798022,30.5057426 C44.8673304,31.6100312 48.4133362,35.3743579 52.9109012,41.7640225 L53.332857,42.3683371 L52.9676406,44.33327 C46.1485558,81.1609478 43.6316053,105.520435 45.4299925,117.505233 L45.6539535,118.952068 C46.3660288,123.747103 46.938847,130.111056 47.7411028,141.165899 L48.5972276,153.054837 C50.2441927,175.357003 51.7610336,187.151656 54.3887425,192.992342 C57.1512405,199.132627 63.8795915,199.235085 70.7816178,194.581788 C77.302702,190.185319 81.8734292,182.976566 81.1587919,177.116154 C81.0207261,175.98394 80.8034886,174.850305 80.5047203,173.675347 C79.743084,170.680081 75.0484287,158.953133 74.0113958,155.991365 L73.9536237,155.824317 C70.5345879,145.79412 68.2975708,134.613514 67.2577676,119.597019 C66.8664355,113.94553 66.5683284,107.923706 66.3565081,101.572256 C65.8072682,85.1032481 65.8514841,67.9814185 66.2746749,49.8803356 L66.7071174,33.6975252 L66.7073524,32.6961498 C66.7152662,28.7390828 67.02345,25.5605299 67.9746169,22.7711194 C68.2878505,21.8525243 68.6562573,20.9416874 69.086543,19.9982092 L69.4715021,19.1896698 C70.0640741,17.9738676 70.9390459,16.2567361 70.905717,16.3256192 L71.0775444,15.9626344 C71.662005,14.6936736 71.7350563,14.0900925 70.963258,13.6094023 C69.1423099,12.4752822 67.5357086,12.6775939 66.2555671,14.0712716 C65.4228512,14.9778412 64.7848938,16.2344972 63.9504298,18.4178539 L63.3637392,20.0048504 C63.1695664,20.5376784 62.9508918,21.1378866 62.8629199,21.375141 L62.5044507,22.3219005 C62.4286384,22.5171664 62.3546576,22.704126 62.281041,22.8863334 C61.9621901,23.6755173 61.5651073,23.7885779 60.7098267,23.3534211 C59.715278,22.8474062 58.4308799,21.6358359 57.0535096,19.9193221 C54.3960258,16.6074985 51.8051784,11.9305965 51.0868365,9.17670953 L50.8804631,8.40703039 C50.1919217,5.91056281 49.4982011,4.10882568 48.8328901,3.10485912 C47.8712313,1.65369837 46.5428824,1.60888252 45.8492193,3.10784305 L45.7797661,3.2684205 Z M49.110456,137.974056 C48.3898882,128.340673 47.8418156,122.619428 47.151882,118.157959 L47.0666699,117.617772 C45.2179798,106.128469 47.6359646,82.1401647 54.3338278,45.7463611 L55.0290129,42.006037 L54.8391872,41.7316 C49.8788443,34.5602716 45.9741801,30.3402986 43.0031969,29.0320868 L42.4628274,28.8077708 C39.111813,27.4046556 37.2588867,25.8969528 36.9409154,24.5199081 L36.917857,24.4023371 L38.7347046,25.6961716 C38.9236322,25.828573 39.0888388,25.9421505 39.2102309,26.0213646 C39.5173147,26.2217513 39.8208221,26.4080369 40.126748,26.5824113 C43.0696908,28.2598565 46.9068608,28.0712844 46.9068608,26.0685383 C46.9068608,25.458926 46.4816387,24.9533565 45.5185147,24.1432907 L45.3186845,23.9770965 C45.0096231,23.722622 44.6569141,23.4459812 44.2008978,23.0983687 L42.4407183,21.7709113 C42.1883863,21.5796457 41.9618649,21.4063292 41.7498197,21.2419805 L41.5421802,21.0802884 C41.0136697,20.6667052 40.567516,20.301111 40.1825421,19.9630408 C39.2182075,19.1161971 38.1036303,16.8220096 37.3176536,14.2145425 L37.2173319,13.8733047 C36.92601,12.8565411 36.7228347,11.9088723 36.6445185,11.2070125 L36.629857,11.0653371 L36.6647724,11.0995394 C37.4912263,11.9264517 38.8031626,14.1037639 39.9026832,16.9545995 C41.3121316,20.6090154 46.3035786,23.5607204 49.7951628,24.2063447 C50.6505007,24.3645041 51.389861,23.7718565 50.9745109,22.8613485 C50.8381259,22.5623728 50.5624935,22.2255046 50.0892857,21.7312901 L49.6678968,21.3079181 C48.8586204,20.5068815 47.2955814,18.9919629 46.8727953,18.5669231 C46.3175481,18.0087163 45.8333613,17.5012494 45.400895,17.0199936 C45.0705359,16.6523644 44.7741175,16.3040173 44.5115257,15.9732912 L44.2298252,15.6139137 C41.6528299,12.2822882 40.5328055,9.56493975 40.4586266,5.99138992 L40.456857,5.86933705 L40.4955514,5.93228644 C40.9036592,6.60872862 41.410775,7.5933911 42.0689035,8.96425319 L43.7315329,12.4923983 C43.8675702,12.7786646 43.9892327,13.0319356 44.1054011,13.2704697 C45.0247657,15.1582442 47.3473236,17.8370004 49.8723062,20.1665422 L50.1888964,20.4558337 C51.2939432,21.4558889 52.2169391,22.1800201 52.7203385,22.4209105 C53.0288097,22.5685224 53.271059,22.626147 53.5999611,22.481737 C54.178619,22.2276676 54.2033059,21.7408455 54.0297357,21.2989345 C53.9285057,21.0412019 53.7033046,20.7046588 53.3323919,20.2388239 L53.186427,20.0579767 C50.9647865,17.3389834 48.6172264,12.9857999 47.7845631,9.64221504 L47.6270955,8.99509097 C46.9854309,6.28880397 46.8721809,4.83574659 47.2632603,3.86779105 L47.319857,3.73833705 L47.4375682,3.8983805 C47.4570511,3.92614743 47.4776311,3.95620651 47.4991622,3.98869722 C48.1083654,4.90799616 48.824154,6.84144552 49.5386402,9.58055115 C50.3202831,12.5771138 53.0175915,17.4461952 55.8055959,20.9206769 C57.3129209,22.7991435 58.742482,24.1476458 59.9842765,24.7794564 C61.6273625,25.6154396 63.0700269,25.2046724 63.7645352,23.485704 L63.9951814,22.9030489 C64.0732558,22.7019823 64.1530291,22.4928453 64.2360208,22.2719713 L65.1945626,19.6559673 L65.4313991,19.0250594 C66.2004688,17.0109537 66.7749827,15.8710015 67.4339165,15.1536266 L67.5472012,15.0358171 C68.189754,14.3992559 68.8476472,14.2913304 69.7774983,14.7729626 L69.822857,14.7973371 L69.8110089,14.8340531 C69.7669008,14.9611904 69.7019202,15.1192778 69.6142349,15.3123639 L69.4109189,15.7340271 C69.1489028,16.2465521 68.0415523,18.4336246 67.6307901,19.3342939 C67.1796959,20.3233983 66.7917272,21.2825997 66.460239,22.2547285 C65.4372047,25.2548989 65.1155973,28.5718998 65.107354,32.6943797 L65.1053878,33.8117697 C65.0808498,35.1525776 64.8185396,44.0404408 64.7325074,47.4736631 C64.2562396,66.4797154 64.1830608,84.4040579 64.7573971,101.625586 C64.9698257,107.995277 65.2688675,114.035982 65.6615896,119.707545 C66.6885868,134.539099 68.8794169,145.695216 72.2197161,155.690314 L72.5696654,156.713416 C73.7549625,160.034886 78.2382233,171.25447 78.9540665,174.069647 C79.2365602,175.180603 79.4410209,176.247563 79.570557,177.309828 C80.2001759,182.473044 75.9595272,189.161211 69.887197,193.255134 C63.6938736,197.430628 58.1016736,197.345471 55.847873,192.335883 C53.3885085,186.869381 51.8860521,175.480279 50.2977418,154.344719 L49.110456,137.974056 Z" transform="scale(-1 1) rotate(-22 0 398.912)"></path></g><g id="Group-2-Copy-6--globalStyle4/office/people/sittingback/1" transform="scale(-1 1) rotate(10 -553.901 -730.255)"><path id="Path-259-Copy--globalStyle4/office/people/sittingback/1" fill="#FFF" d="M54.1753996,42.1866936 C46.9799886,80.5902681 44.3451838,105.776324 46.2709852,117.744862 C49.1596874,135.697668 49.6329079,180.484543 55.1124637,192.664112 C60.5920195,204.843682 81.7937181,188.979846 80.3588304,177.212991 C78.9239426,165.446136 69.0184651,156.689827 66.4538345,119.652282 C63.889204,82.6147363 65.9018935,37.9731213 65.9018935,33.5466534 C65.9018935,31.5511727 65.8317352,26.5594952 67.2115839,22.5129239 C68.7816297,17.9085771 71.2824241,14.7542989 70.5344806,14.2884659 C66.3544355,11.6850567 65.1519212,17.9017649 63.0169441,23.1860187 C60.881967,28.4702725 51.8066434,15.1281766 50.3068943,9.37863034 C48.8071452,3.62908405 47.3458192,1.51341236 46.5156692,3.56810577 C45.945887,4.97836614 46.3106404,7.05763982 47.0024287,9.83553702 C47.9632337,13.6936786 50.6029636,18.1676799 52.5610833,20.5641587 C55.929067,24.6861242 46.8639253,17.1195508 44.818797,12.9201928 C42.7736688,8.72083485 39.648818,1.17498695 39.648818,5.60516631 C39.648818,10.0353457 41.1925287,13.0870266 43.8791527,16.4707461 C46.5657767,19.8544656 51.6334119,23.733772 49.9347798,23.4196802 C48.2361478,23.1055883 42.2456762,20.821495 40.6432481,16.6667217 C39.0408201,12.5119485 37.1641367,9.93725478 36.0857105,9.93725478 C35.0072843,9.93725478 37.2034762,18.4167478 39.648818,20.5641587 C42.0941599,22.7115696 46.1010167,25.2030698 46.1010167,26.0685383 C46.1010167,26.9340068 43.3865645,27.5229721 40.5170607,25.8873862 C37.6475568,24.2518004 36.0857105,22.1254709 36.0857105,24.0970046 C36.0857105,26.0685383 38.310749,27.9979614 42.5092971,29.694285 C45.3083293,30.8251674 49.1970301,34.9893036 54.1753996,42.1866936 Z" transform="scale(-1 1) rotate(-22 0 398.904)"></path><path id="Path-259--globalStyle4/office/people/sittingback/1" fill="#000" fill-rule="nonzero" d="M45.7797661,3.2684205 C45.1832245,4.74491283 45.368586,6.56186384 46.2319825,10.028859 L46.3376891,10.4316622 C46.9349016,12.5997898 48.0600184,15.0739848 49.3672788,17.305293 L49.575857,17.6573371 L49.5017315,17.5821876 C47.7084154,15.7631608 46.1859724,13.8883524 45.543881,12.569916 L43.8298078,8.94027616 C42.7641947,6.68843868 42.053776,5.3207618 41.4641403,4.48673086 L41.3765715,4.36558475 C40.8037544,3.59124239 40.2942265,3.21136114 39.5930943,3.56248517 C39.0015044,3.8587509 38.8546621,4.48928917 38.8546621,5.60516631 C38.8546621,9.90004036 40.1769118,13.087077 43.2584677,16.968201 C43.5425584,17.3260044 43.8597861,17.6988063 44.2108083,18.0894298 C44.5727257,18.4921775 44.9665408,18.9096134 45.4029555,19.3554069 L45.9366387,19.8923903 L48.155857,22.0643371 L47.9750453,21.9936514 C45.2856585,20.9051616 42.3099171,18.7497404 41.3955012,16.378844 L41.1359789,15.724117 C39.5200932,11.7581033 37.6288308,9.13725478 36.0915546,9.13725478 C35.0337457,9.13725478 34.8972868,9.97652989 35.0543872,11.3844453 C35.153332,12.2711766 35.4148382,13.4458608 35.785737,14.6763128 C36.6526304,17.5522195 37.8730728,20.0643144 39.1267821,21.1652766 C39.4551025,21.4535957 39.8205932,21.7569481 40.2354999,22.0873113 L40.9912493,22.6776018 L42.998136,24.1939996 C43.5563812,24.6167034 43.9613793,24.9320933 44.3016638,25.2122763 L44.4615761,25.3454657 C44.7176033,25.5613491 44.9212248,25.7468195 45.0733644,25.9031024 L45.141857,25.9763371 L45.0759847,26.0009003 C44.8848181,26.0606413 44.6368497,26.1028076 44.3516792,26.1168219 C43.3313562,26.1669642 42.0990644,25.86495 40.9190614,25.1923612 C40.6421683,25.0345351 40.3658173,24.8649175 40.0846104,24.6814166 L39.6944235,24.4143733 C38.9523943,23.8943366 37.6873653,22.9692806 37.4020432,22.8051577 C36.2321116,22.1321898 35.2915546,22.6410528 35.2915546,24.0970046 C35.2915546,26.4997385 37.7341344,28.6254607 42.2154559,30.4360321 L42.3798022,30.5057426 C44.8673304,31.6100312 48.4133362,35.3743579 52.9109012,41.7640225 L53.332857,42.3683371 L52.9676406,44.33327 C46.1485558,81.1609478 43.6316053,105.520435 45.4299925,117.505233 L45.6539535,118.952068 C46.3660288,123.747103 46.938847,130.111056 47.7411028,141.165899 L48.5972276,153.054837 C50.2441927,175.357003 51.7610336,187.151656 54.3887425,192.992342 C57.1512405,199.132627 63.8795915,199.235085 70.7816178,194.581788 C77.302702,190.185319 81.8734292,182.976566 81.1587919,177.116154 C81.0207261,175.98394 80.8034886,174.850305 80.5047203,173.675347 C79.743084,170.680081 75.0484287,158.953133 74.0113958,155.991365 L73.9536237,155.824317 C70.5345879,145.79412 68.2975708,134.613514 67.2577676,119.597019 C66.8664355,113.94553 66.5683284,107.923706 66.3565081,101.572256 C65.8072682,85.1032481 65.8514841,67.9814185 66.2746749,49.8803356 L66.7071174,33.6975252 L66.7073524,32.6961498 C66.7152662,28.7390828 67.02345,25.5605299 67.9746169,22.7711194 C68.2878505,21.8525243 68.6562573,20.9416874 69.086543,19.9982092 L69.4715021,19.1896698 C70.0640741,17.9738676 70.9390459,16.2567361 70.905717,16.3256192 L71.0775444,15.9626344 C71.662005,14.6936736 71.7350563,14.0900925 70.963258,13.6094023 C69.1423099,12.4752822 67.5357086,12.6775939 66.2555671,14.0712716 C65.4228512,14.9778412 64.7848938,16.2344972 63.9504298,18.4178539 L63.3637392,20.0048504 C63.1695664,20.5376784 62.9508918,21.1378866 62.8629199,21.375141 L62.5044507,22.3219005 C62.4286384,22.5171664 62.3546576,22.704126 62.281041,22.8863334 C61.9621901,23.6755173 61.5651073,23.7885779 60.7098267,23.3534211 C59.715278,22.8474062 58.4308799,21.6358359 57.0535096,19.9193221 C54.3960258,16.6074985 51.8051784,11.9305965 51.0868365,9.17670953 L50.8804631,8.40703039 C50.1919217,5.91056281 49.4982011,4.10882568 48.8328901,3.10485912 C47.8712313,1.65369837 46.5428824,1.60888252 45.8492193,3.10784305 L45.7797661,3.2684205 Z M49.110456,137.974056 C48.3898882,128.340673 47.8418156,122.619428 47.151882,118.157959 L47.0666699,117.617772 C45.2179798,106.128469 47.6359646,82.1401647 54.3338278,45.7463611 L55.0290129,42.006037 L54.8391872,41.7316 C49.8788443,34.5602716 45.9741801,30.3402986 43.0031969,29.0320868 L42.4628274,28.8077708 C39.111813,27.4046556 37.2588867,25.8969528 36.9409154,24.5199081 L36.917857,24.4023371 L38.7347046,25.6961716 C38.9236322,25.828573 39.0888388,25.9421505 39.2102309,26.0213646 C39.5173147,26.2217513 39.8208221,26.4080369 40.126748,26.5824113 C43.0696908,28.2598565 46.9068608,28.0712844 46.9068608,26.0685383 C46.9068608,25.458926 46.4816387,24.9533565 45.5185147,24.1432907 L45.3186845,23.9770965 C45.0096231,23.722622 44.6569141,23.4459812 44.2008978,23.0983687 L42.4407183,21.7709113 C42.1883863,21.5796457 41.9618649,21.4063292 41.7498197,21.2419805 L41.5421802,21.0802884 C41.0136697,20.6667052 40.567516,20.301111 40.1825421,19.9630408 C39.2182075,19.1161971 38.1036303,16.8220096 37.3176536,14.2145425 L37.2173319,13.8733047 C36.92601,12.8565411 36.7228347,11.9088723 36.6445185,11.2070125 L36.629857,11.0653371 L36.6647724,11.0995394 C37.4912263,11.9264517 38.8031626,14.1037639 39.9026832,16.9545995 C41.3121316,20.6090154 46.3035786,23.5607204 49.7951628,24.2063447 C50.6505007,24.3645041 51.389861,23.7718565 50.9745109,22.8613485 C50.8381259,22.5623728 50.5624935,22.2255046 50.0892857,21.7312901 L49.6678968,21.3079181 C48.8586204,20.5068815 47.2955814,18.9919629 46.8727953,18.5669231 C46.3175481,18.0087163 45.8333613,17.5012494 45.400895,17.0199936 C45.0705359,16.6523644 44.7741175,16.3040173 44.5115257,15.9732912 L44.2298252,15.6139137 C41.6528299,12.2822882 40.5328055,9.56493975 40.4586266,5.99138992 L40.456857,5.86933705 L40.4955514,5.93228644 C40.9036592,6.60872862 41.410775,7.5933911 42.0689035,8.96425319 L43.7315329,12.4923983 C43.8675702,12.7786646 43.9892327,13.0319356 44.1054011,13.2704697 C45.0247657,15.1582442 47.3473236,17.8370004 49.8723062,20.1665422 L50.1888964,20.4558337 C51.2939432,21.4558889 52.2169391,22.1800201 52.7203385,22.4209105 C53.0288097,22.5685224 53.271059,22.626147 53.5999611,22.481737 C54.178619,22.2276676 54.2033059,21.7408455 54.0297357,21.2989345 C53.9285057,21.0412019 53.7033046,20.7046588 53.3323919,20.2388239 L53.186427,20.0579767 C50.9647865,17.3389834 48.6172264,12.9857999 47.7845631,9.64221504 L47.6270955,8.99509097 C46.9854309,6.28880397 46.8721809,4.83574659 47.2632603,3.86779105 L47.319857,3.73833705 L47.4375682,3.8983805 C47.4570511,3.92614743 47.4776311,3.95620651 47.4991622,3.98869722 C48.1083654,4.90799616 48.824154,6.84144552 49.5386402,9.58055115 C50.3202831,12.5771138 53.0175915,17.4461952 55.8055959,20.9206769 C57.3129209,22.7991435 58.742482,24.1476458 59.9842765,24.7794564 C61.6273625,25.6154396 63.0700269,25.2046724 63.7645352,23.485704 L63.9951814,22.9030489 C64.0732558,22.7019823 64.1530291,22.4928453 64.2360208,22.2719713 L65.1945626,19.6559673 L65.4313991,19.0250594 C66.2004688,17.0109537 66.7749827,15.8710015 67.4339165,15.1536266 L67.5472012,15.0358171 C68.189754,14.3992559 68.8476472,14.2913304 69.7774983,14.7729626 L69.822857,14.7973371 L69.8110089,14.8340531 C69.7669008,14.9611904 69.7019202,15.1192778 69.6142349,15.3123639 L69.4109189,15.7340271 C69.1489028,16.2465521 68.0415523,18.4336246 67.6307901,19.3342939 C67.1796959,20.3233983 66.7917272,21.2825997 66.460239,22.2547285 C65.4372047,25.2548989 65.1155973,28.5718998 65.107354,32.6943797 L65.1053878,33.8117697 C65.0808498,35.1525776 64.8185396,44.0404408 64.7325074,47.4736631 C64.2562396,66.4797154 64.1830608,84.4040579 64.7573971,101.625586 C64.9698257,107.995277 65.2688675,114.035982 65.6615896,119.707545 C66.6885868,134.539099 68.8794169,145.695216 72.2197161,155.690314 L72.5696654,156.713416 C73.7549625,160.034886 78.2382233,171.25447 78.9540665,174.069647 C79.2365602,175.180603 79.4410209,176.247563 79.570557,177.309828 C80.2001759,182.473044 75.9595272,189.161211 69.887197,193.255134 C63.6938736,197.430628 58.1016736,197.345471 55.847873,192.335883 C53.3885085,186.869381 51.8860521,175.480279 50.2977418,154.344719 L49.110456,137.974056 Z" transform="scale(-1 1) rotate(-22 0 398.912)"></path></g><path id="Path-601--globalStyle4/office/people/sittingback/1" fill="#000" d="M276.187225,401.062343 L291.01965,435.481262 C347.5982,440.022104 395.137246,454.180902 433.636787,477.957655 C472.136328,501.734409 509.192754,531.045614 544.806065,565.891272 L536.067837,586.278061 C451.16446,538.495583 403.267498,514.604345 392.376949,514.604345 C381.486401,514.604345 327.005339,514.604345 228.933762,514.604345 C219.864216,509.124725 213.499243,496.909162 209.838842,477.957655 C206.178441,459.006149 204.348241,426.570704 204.348241,380.651322 L276.187225,401.062343 Z"></path><path id="Path-600-Copy--globalStyle4/office/people/sittingback/1" fill="#FFF" d="M190.196697,247.037966 C197.002064,244.622257 203.508585,237.7637 209.71626,226.462294 L246.737825,230.540309 C245.946395,251.601068 249.226497,272.281712 256.578132,292.582241 C263.929767,312.882769 270.425271,349.042803 276.064643,401.062343 C253.083298,411.459694 230.091158,415.175417 207.088221,412.209512 C172.583816,407.760655 148.084187,287.912392 142.382525,279.638872 C138.581417,274.123192 134.475082,268.632048 130.063519,263.165441 L148.312372,247.037966 C169.779358,249.329623 183.7408,249.329623 190.196697,247.037966 Z"></path><path id="Path-600--globalStyle4/office/people/sittingback/1" fill="#000" fill-rule="nonzero" d="M247.687791,229.826609 L209.395038,225.608569 L209.137657,226.077144 C203.015471,237.222914 196.637061,243.946429 190.051663,246.284055 C183.82265,248.495175 170.187363,248.520885 149.261461,246.321051 L148.169339,246.205065 L129.083133,263.072553 L129.563538,263.66785 C133.562673,268.623397 137.30992,273.598696 140.805317,278.593729 L141.84638,280.092831 C142.768519,281.430921 143.885197,284.703731 147.054677,295.435843 L151.568138,310.82917 C155.779311,325.092072 158.804455,334.724257 162.521627,345.397943 L162.741096,346.02705 C177.020568,386.888905 191.360218,410.972425 207.108501,413.002944 C230.262061,415.98827 253.403271,412.248455 276.516987,401.791217 L277.04503,401.552317 L276.642784,397.870409 C271.132993,347.969258 264.814998,312.998735 257.674027,292.9259 L257.45291,292.30984 C250.136127,272.105552 246.872304,251.527549 247.659842,230.570351 L247.687791,229.826609 Z M210.280643,227.315 L246.035643,231.254 L246.060971,230.510268 C245.28011,251.289782 248.443516,271.701991 255.549676,291.741706 L256.167986,293.466129 L256.596684,294.692294 C263.511689,314.811261 269.669524,349.284428 275.056287,398.080792 L275.328643,400.57 L274.004857,401.157078 C251.773722,410.865631 229.547788,414.282929 207.313105,411.41608 C192.472199,409.502554 178.300178,385.70057 164.251525,345.49922 L163.172099,342.383221 C159.348702,331.245889 156.132056,320.767999 151.29751,304.229333 L148.130947,293.431066 C145.200217,283.551337 144.173644,280.650219 143.163834,279.184913 L142.116431,277.676679 C138.951481,273.153851 135.581879,268.647888 132.007652,264.158777 L131.286643,263.259 L148.700643,247.87 L150.581724,248.066211 C170.908799,250.135203 184.207961,250.056214 190.586896,247.791877 C197.369978,245.384078 203.788838,238.781452 209.88779,228.016731 L210.280643,227.315 Z"></path><path id="Path-599--globalStyle4/office/people/sittingback/1" fill="#000" d="M197.966621,259.757265 C211.843696,219.773706 213.555406,190.592403 203.10175,172.213357 C187.421266,144.644788 159.785015,148.878212 148.279007,165.161288 C136.772999,181.444363 113.385455,191.703704 125.079227,225.466305 C136.772999,259.228905 134.417343,257.188061 130.186101,282.280765 C125.95486,307.373468 128.199935,342.006662 165.650843,352.955928 C190.618114,360.255438 201.39004,329.189217 197.966621,259.757265 Z"></path><polygon id="Path-602--globalStyle4/office/people/sittingback/1" fill="#000" points="402.323661 502.069062 489.247187 596.959035 473.626942 613.098034 338.929187 509.067868"></polygon><g id="Group--globalStyle4/office/people/sittingback/1" transform="translate(94.812 291.405)"><path id="Combined-Shape--globalStyle4/office/people/sittingback/1" fill="#000" fill-rule="nonzero" d="M259.995577,241.758442 C261.86414,241.758442 263.390703,243.22272 263.490398,245.066407 L263.495577,245.258442 L263.495577,402.024446 C263.495577,412.679429 254.949895,421.338461 244.338585,421.52149 L243.995577,421.524446 L156.800208,421.524446 C154.867211,421.524446 153.300208,419.957443 153.300208,418.024446 C153.300208,417.595516 153.377366,417.184606 153.518559,416.804841 C150.185341,419.677233 145.869139,421.439975 141.143216,421.52149 L140.800208,421.524446 L53.6048386,421.524446 C51.671842,421.524446 50.1048386,419.957443 50.1048386,418.024446 C50.1048386,416.155883 51.5691162,414.62932 53.4128034,414.529625 L53.6048386,414.524446 L140.800208,414.524446 C147.600729,414.524446 153.132858,409.093817 153.296482,402.332673 L153.300208,402.024446 L153.300208,245.258442 C153.300208,243.325446 154.867211,241.758442 156.800208,241.758442 C158.668771,241.758442 160.195334,243.22272 160.295029,245.066407 L160.300208,245.258442 L160.300208,402.024446 C160.300208,406.884864 158.521976,411.329953 155.580605,414.744621 C155.902611,414.622966 156.248158,414.549092 156.608172,414.529625 L156.800208,414.524446 L243.995577,414.524446 C250.796098,414.524446 256.328227,409.093817 256.491851,402.332673 L256.495577,402.024446 L256.495577,245.258442 C256.495577,243.325446 258.06258,241.758442 259.995577,241.758442 Z"></path><rect id="Rectangle-Copy-203--globalStyle4/office/people/sittingback/1" width="196" height="21.031" x="75.14" y="232.228" fill="#FFF" rx="10.515"></rect><path id="Rectangle--globalStyle4/office/people/sittingback/1" fill="#000" fill-rule="nonzero" d="M260.624426,231.427869 L85.6549993,231.427869 C79.4057391,231.427869 74.3397128,236.493896 74.3397128,242.743156 C74.3397128,248.992416 79.4057391,254.058442 85.6549993,254.058442 L260.624426,254.058442 C266.873687,254.058442 271.939713,248.992416 271.939713,242.743156 C271.939713,236.493896 266.873687,231.427869 260.624426,231.427869 Z M85.6549993,233.027869 L260.624426,233.027869 C265.990031,233.027869 270.339713,237.377551 270.339713,242.743156 C270.339713,248.10876 265.990031,252.458442 260.624426,252.458442 L85.6549993,252.458442 C80.2893947,252.458442 75.9397128,248.10876 75.9397128,242.743156 C75.9397128,237.377551 80.2893947,233.027869 85.6549993,233.027869 Z"></path><rect id="Rectangle-Copy-202--globalStyle4/office/people/sittingback/1" width="196" height="16" x="75.14" y="216.228" fill="#FFF" rx="8"></rect><path id="Rectangle-Copy-199--globalStyle4/office/people/sittingback/1" fill="#000" fill-rule="nonzero" d="M263.139713,215.427869 L83.1397128,215.427869 C78.279607,215.427869 74.3397128,219.367764 74.3397128,224.227869 C74.3397128,229.087975 78.279607,233.027869 83.1397128,233.027869 L263.139713,233.027869 C267.999819,233.027869 271.939713,229.087975 271.939713,224.227869 C271.939713,219.367764 267.999819,215.427869 263.139713,215.427869 Z M83.1397128,217.027869 L263.139713,217.027869 C267.116163,217.027869 270.339713,220.251419 270.339713,224.227869 C270.339713,228.20432 267.116163,231.427869 263.139713,231.427869 L83.1397128,231.427869 C79.1632626,231.427869 75.9397128,228.20432 75.9397128,224.227869 C75.9397128,220.251419 79.1632626,217.027869 83.1397128,217.027869 Z"></path><path id="Rectangle-Copy-201--globalStyle4/office/people/sittingback/1" fill="#FFF" fill-rule="nonzero" d="M105.696018,0.8 L18.804878,0.8 C17.1071439,0.8 15.4179471,1.04018581 13.7875014,1.51341756 C4.24038559,4.28443813 -1.25272498,14.2702607 1.51829559,23.8173766 L64.3446826,240.275819 C66.5770605,247.967126 73.6225376,253.258442 81.631265,253.258442 L168.522405,253.258442 C170.220139,253.258442 171.909336,253.018257 173.539782,252.545025 C183.086897,249.774004 188.580008,239.788182 185.808987,230.241066 L122.9826,13.7826234 C120.750223,6.09131634 113.704745,0.8 105.696018,0.8 Z M18.804878,8.8 L105.696018,8.8 C110.145311,8.8 114.059465,11.7396202 115.299675,16.0125686 L178.126062,232.471011 C179.665518,237.774964 176.61379,243.322643 171.309836,244.862099 C170.404033,245.125006 169.465591,245.258442 168.522405,245.258442 L81.631265,245.258442 C77.181972,245.258442 73.267818,242.318822 72.0276081,238.045874 L9.20122111,21.5874314 C7.66176524,16.2834782 10.7134933,10.735799 16.0174466,9.19634309 C16.9232497,8.93343656 17.8616924,8.8 18.804878,8.8 Z"></path><path id="Rectangle--globalStyle4/office/people/sittingback/1" fill="#000" fill-rule="nonzero" d="M105.696018,1.13686838e-13 C113.935843,1.13686838e-13 121.199414,5.36274734 123.643147,13.2016212 L123.750893,13.5596289 L186.57728,230.018071 C189.471457,239.989503 183.734208,250.41914 173.762776,253.313317 C172.230157,253.758155 170.647835,254.005836 169.054042,254.050924 L168.522405,254.058442 L81.631265,254.058442 C73.39144,254.058442 66.1278688,248.695695 63.684136,240.856821 L63.57639,240.498813 L0.750003035,24.0403711 C-2.144174,14.068939 3.59307482,3.63930205 13.5645069,0.745125012 C15.0971258,0.300287166 16.6794482,0.0526061831 18.2732413,0.00751836495 L18.804878,1.13686838e-13 L105.696018,1.13686838e-13 Z M105.696018,1.6 L18.804878,1.6 C17.1825987,1.6 15.5684773,1.82951089 14.010496,2.28171012 C4.99377543,4.8987851 -0.23868306,14.2506074 2.19741761,23.2759863 L2.28658814,23.5943821 L65.1129751,240.052824 C67.2128056,247.28746 73.7692181,252.299878 81.273229,252.45475 L81.631265,252.458442 L168.522405,252.458442 C170.144684,252.458442 171.758806,252.228931 173.316787,251.776732 C182.333508,249.159657 187.565966,239.807835 185.129865,230.782456 L185.040695,230.46406 L122.214308,14.0056179 C120.114477,6.77098221 113.558065,1.75856448 106.054054,1.60369269 L105.696018,1.6 Z M105.696018,8 C110.403188,8 114.555758,11.0465288 115.982373,15.5088502 L116.067967,15.7895741 L178.894354,232.248016 C180.556967,237.976286 177.2611,243.967779 171.532831,245.630392 C170.694316,245.873768 169.829903,246.014414 168.958564,246.049632 L168.522405,246.058442 L81.631265,246.058442 C76.9240946,246.058442 72.7715253,243.011913 71.34491,238.549592 L71.2593156,238.268868 L8.43292856,21.8104259 C6.77031622,16.0821564 10.0661826,10.0906629 15.7944521,8.42805054 C16.632967,8.18467421 17.4973803,8.04402833 18.3687193,8.00881066 L18.804878,8 L105.696018,8 Z M105.696018,9.6 L18.804878,9.6 C17.9371472,9.6 17.07378,9.72276164 16.2404411,9.96463564 C11.4479405,11.355644 8.65414606,16.3036949 9.89766894,21.1028356 L9.96951367,21.3644369 L72.7959007,237.822879 C73.9109621,241.664648 77.3755033,244.334879 81.352959,244.454269 L81.631265,244.458442 L168.522405,244.458442 C169.390136,244.458442 170.253503,244.335681 171.086842,244.093807 C175.879342,242.702798 178.673137,237.754747 177.429614,232.955607 L177.357769,232.694005 L114.531382,16.2355631 C113.390389,12.3044506 109.789368,9.6 105.696018,9.6 Z"></path><path id="Rectangle-Copy-200--globalStyle4/office/people/sittingback/1" fill="#FFF" d="M19.6519627,30.9535876 L111.199296,30.9535876 C117.372511,30.9535876 122.817139,34.9969668 124.601617,40.9066394 L151.350774,129.492104 C153.585841,136.894002 149.397298,144.706306 141.995401,146.941373 C140.682959,147.337677 139.319423,147.539052 137.948452,147.539052 L46.4011195,147.539052 C40.2279041,147.539052 34.7832758,143.495673 32.9987984,137.586001 L6.24964162,49.0005358 C4.01457384,41.5986382 8.20311694,33.7863343 15.6050145,31.5512665 C16.9174563,31.1549632 18.2809923,30.9535876 19.6519627,30.9535876 Z"></path><path id="Rectangle-Copy-198--globalStyle4/office/people/sittingback/1" fill="#000" fill-rule="nonzero" d="M111.199296,30.1535876 L19.6519627,30.1535876 C18.2026511,30.1535876 16.7611988,30.3664704 15.3737603,30.7854196 C7.54889719,33.1482055 3.12100876,41.4069268 5.4837947,49.23179 L32.2329515,137.817255 C34.119399,144.064623 39.8751489,148.339052 46.4011195,148.339052 L137.948452,148.339052 C139.397764,148.339052 140.839216,148.12617 142.226655,147.70722 C150.051518,145.344434 154.479406,137.085713 152.11662,129.26085 L125.367464,40.6753852 C123.481016,34.4280171 117.725266,30.1535876 111.199296,30.1535876 Z M19.6519627,31.7535876 L111.199296,31.7535876 C117.019756,31.7535876 122.153263,35.5659166 123.83577,41.1378935 L150.584927,129.723358 C152.692276,136.70229 148.743078,144.068177 141.764146,146.175527 C140.526701,146.549184 139.241082,146.739052 137.948452,146.739052 L46.4011195,146.739052 C40.5806592,146.739052 35.4471526,142.926723 33.7646454,137.354746 L7.01548854,48.7692816 C4.90813892,41.7903496 8.8573367,34.424463 15.8362687,32.3171134 C17.0737138,31.943456 18.3593334,31.7535876 19.6519627,31.7535876 Z"></path></g><path id="[color]shoes--globalStyle4/office/people/sittingback/1" fill="#f81f69" d="M566.139284,604.239027 L566.453805,604.333556 C568.561233,604.996161 569.732493,607.241716 569.069888,609.349144 C568.944011,609.749497 568.755914,610.127547 568.5125,610.469419 C556.665993,627.107672 549.161647,636.195627 545.99946,637.733283 C542.603557,639.384588 535.223103,641.320371 523.8581,643.540633 L535.340037,657.760103 L533.078046,660.571609 C521.825198,656.111204 513.625349,651.839244 508.4785,647.755729 C503.331651,643.672214 497.394728,638.099073 490.667731,631.036306 L505.74118,609.884216 C512.493286,617.841993 519.928652,622.467831 528.047278,623.761729 C540.225217,625.702578 555.261374,608.793115 559.423596,605.301629 C561.192919,603.81743 563.431481,603.463229 566.139284,604.239027 Z M618.132801,551.208877 L618.460526,551.230232 C620.662994,551.401786 622.309375,553.326312 622.13782,555.52878 C622.10523,555.947188 622.006996,556.357861 621.846725,556.745728 C614.046636,575.622428 608.77897,586.165569 606.043728,588.375153 C603.106324,590.748046 596.350487,594.294456 585.776218,599.014383 L600.16256,610.286535 L598.590995,613.534819 C586.623183,611.720074 577.672514,609.402169 571.738987,606.581104 C565.80546,603.760038 558.767016,599.665253 550.623656,594.29675 L560.552588,570.295997 C568.921748,576.530924 577.207133,579.365608 585.408743,578.800051 C597.711159,577.951715 608.558138,558.093242 611.828269,553.754946 C613.218372,551.910776 615.319883,551.062086 618.132801,551.208877 Z" opacity="1.00"></path></g></g></svg></g></g></svg>